<svg width="1340" height="378" viewBox="0 0 1340 378" fill="none" xmlns="http://www.w3.org/2000/svg">
<path d="M1111.91 231.602L1124.27 276.839L1169.41 215.877L1158.77 375.729H1094.32L1075.54 376.633C1075.54 376.633 1078.32 351.445 1079.46 337.204C1080.16 325.837 1082.07 314.577 1085.18 303.62C1094.81 272.315 1111.91 231.602 1111.91 231.602Z" fill="#FAFAFA"/>
<path d="M1126.45 302.354C1126.62 302.553 1119.32 308.416 1110.17 315.455C1101.01 322.494 1093.5 328.013 1093.34 327.814C1093.18 327.615 1100.45 321.734 1109.62 314.713C1118.8 307.692 1126.29 302.137 1126.45 302.354Z" fill="#263238"/>
<path d="M1238.66 209.563L1203.56 192.68L1189.79 176.322L1170.32 196.553L1118.67 375.277H1207.23L1218.57 344.606L1238.66 226.192V209.563Z" fill="#38B8FF"/>
<path d="M1080.69 377.81L1078.32 339.81L1185.28 321.715C1185.28 321.715 1203.56 233.447 1214.81 218.989C1225.22 205.635 1238.75 210.267 1238.75 210.267C1238.75 210.267 1250.97 218.627 1248.05 250.637C1246.51 267.412 1240.38 325.533 1238.17 346.541C1237.63 351.571 1235.96 356.414 1233.29 360.71C1230.28 365.546 1226.08 369.535 1221.1 372.302C1216.12 375.069 1210.52 376.522 1204.82 376.525L1080.69 377.81Z" fill="#38B8FF"/>
<path d="M1202.76 343.844C1202.6 343.844 1202.45 342.161 1201.67 339.573C1200.68 336.194 1198.99 333.059 1196.72 330.365C1194.45 327.671 1191.64 325.477 1188.48 323.921C1186.06 322.708 1184.39 322.292 1184.45 322.111C1185.95 322.229 1187.41 322.634 1188.75 323.306C1192.11 324.739 1195.09 326.939 1197.44 329.729C1199.79 332.52 1201.46 335.823 1202.31 339.374C1202.74 340.821 1202.89 342.338 1202.76 343.844Z" fill="#263238"/>
<g opacity="0.2">
<path d="M1200.81 195.248C1199.8 206.419 1197.65 217.459 1194.42 228.199L1186.38 225.847C1187.91 228.303 1188.91 231.049 1189.32 233.911C1189.73 236.773 1189.55 239.69 1188.77 242.476C1187.2 248.034 1184.86 253.345 1181.82 258.255C1168.55 282.153 1155.25 306.062 1141.91 329.984L1182.15 238.604L1181.1 221.703L1188.84 220.056L1200.81 195.248Z" fill="black"/>
</g>
<g opacity="0.2">
<path d="M1184.94 320.758C1189.85 320.475 1194.71 321.896 1198.69 324.781C1202.68 327.666 1205.55 331.837 1206.81 336.591C1207.19 337.707 1207.19 338.913 1206.81 340.029C1206.61 340.577 1206.21 341.029 1205.69 341.294C1205.17 341.559 1204.57 341.618 1204.01 341.459C1203.25 340.982 1202.7 340.24 1202.45 339.378C1200.67 335.392 1198.11 331.805 1194.91 328.83C1191.72 325.855 1187.95 323.553 1183.85 322.061" fill="black"/>
</g>
<path d="M1142.2 329.116C1142.34 328.616 1142.53 328.126 1142.74 327.65L1144.55 323.506L1151.04 308.397L1172.87 258.653C1175.98 251.596 1178.98 244.793 1181.81 238.423V238.622C1181.46 232.615 1181.12 226.969 1180.81 221.739V221.378H1181.14L1188.9 219.767L1188.65 219.966L1198.29 200.442L1200.99 195.104L1201.73 193.728C1201.81 193.564 1201.9 193.407 1202 193.258C1201.97 193.436 1201.91 193.608 1201.82 193.764L1201.19 195.194C1200.57 196.515 1199.74 198.343 1198.67 200.623L1189.31 220.292V220.455H1189.13L1181.39 222.138L1181.71 221.721C1182.04 226.951 1182.4 232.578 1182.8 238.604V238.713V238.821C1179.98 245.209 1176.99 252.012 1173.88 259.07L1151.82 308.704C1148.98 314.965 1146.68 320.068 1145.04 323.705L1143.23 327.758C1142.92 328.236 1142.57 328.69 1142.2 329.116Z" fill="#263238"/>
<path d="M1080.6 376.616C1080.56 376.408 1080.53 376.196 1080.51 375.983C1080.51 375.513 1080.51 374.897 1080.37 374.174C1080.24 372.473 1080.06 370.084 1079.84 366.936C1079.42 360.693 1078.83 351.736 1078.03 340.716V340.408H1078.32L1155.71 326.186L1184.25 321.01L1183.89 321.354C1190.17 297.523 1195.59 276.84 1199.5 262.039C1201.46 254.801 1203.12 248.883 1204.12 244.794C1204.68 242.822 1205.09 241.284 1205.4 240.18L1205.75 238.985L1205.89 238.605C1205.91 238.743 1205.91 238.884 1205.89 239.022L1205.62 240.216C1205.35 241.338 1204.97 242.894 1204.48 244.866L1200.12 262.183C1196.3 277.003 1190.96 297.722 1184.83 321.571V321.861H1184.54L1155.93 327.145L1078.52 341.078L1078.81 340.716C1079.41 351.754 1079.9 360.711 1080.24 366.972C1080.38 370.03 1080.49 372.4 1080.56 374.119C1080.56 374.897 1080.56 375.513 1080.56 375.929C1080.6 376.156 1080.61 376.387 1080.6 376.616Z" fill="#263238"/>
<path d="M1233.27 206.613C1233.27 206.776 1231.46 207.047 1228.75 208.061C1225.19 209.394 1221.93 211.417 1219.16 214.013C1216.39 216.609 1214.15 219.727 1212.59 223.188C1211.4 225.848 1211.02 227.658 1210.78 227.603C1210.54 227.549 1210.78 227.151 1210.91 226.319C1211.13 225.162 1211.46 224.029 1211.9 222.935C1213.35 219.291 1215.58 216.011 1218.45 213.33C1221.31 210.65 1224.73 208.634 1228.46 207.427C1229.58 207.067 1230.73 206.806 1231.9 206.649C1232.8 206.559 1233.25 206.541 1233.27 206.613Z" fill="#263238"/>
<path d="M1031.04 166.389C1034.21 160.544 1032.85 136.948 1037.68 137.781C1043.92 138.848 1038.15 163.657 1037.68 165.919C1037.21 168.18 1040.56 168.723 1040.79 166.679C1041.15 163.729 1044.77 134.867 1050.91 136.496C1054.31 137.383 1052.72 143.589 1052.72 143.589C1052.72 143.589 1047.43 171.564 1050.36 172.234C1053.3 172.903 1055.52 156.781 1056.82 150.918C1058.13 145.055 1061.75 142.866 1063.14 145.833C1065.17 150.176 1061.33 164.272 1060.1 169.918C1058.87 175.563 1056.01 191.939 1063.95 185.534C1071.9 179.128 1080.24 177.138 1082.97 178.169C1085.7 179.2 1085.02 183.236 1081.98 184.032C1078.76 185.236 1075.71 186.867 1072.93 188.881C1070.72 190.528 1068.7 192.422 1066.92 194.527C1064.55 197.134 1062.63 200.119 1061.24 203.357C1060.11 205.915 1058.45 208.205 1056.38 210.077C1054.3 211.948 1051.85 213.358 1049.19 214.214L1044.56 236.254L1014.55 229.83L1021.23 206.506C1023.67 191.179 1022.34 170.587 1022.35 161.268C1022.35 146.322 1024.33 146.213 1025.97 146.611C1029.97 147.389 1027.95 172.089 1031.04 166.389Z" fill="#FFC9AE"/>
<path d="M1030.19 186.436C1031.56 186.955 1032.89 187.56 1034.19 188.246C1037.23 190.126 1039.6 192.927 1040.95 196.244C1041.34 197.266 1041.65 198.319 1041.86 199.392L1041.95 199.899L1042.38 199.664C1044.79 198.251 1047.41 197.254 1050.15 196.714C1052.19 196.316 1053.46 196.28 1053.46 196.172C1052.34 195.98 1051.19 195.98 1050.07 196.172C1047.24 196.579 1044.51 197.519 1042.02 198.94L1042.55 199.212C1042.36 198.072 1042.05 196.956 1041.62 195.882C1040.84 193.989 1039.72 192.249 1038.33 190.743C1037.19 189.538 1035.87 188.513 1034.42 187.703C1033.46 187.176 1032.44 186.769 1031.38 186.491C1030.99 186.407 1030.59 186.388 1030.19 186.436Z" fill="#CC8F75"/>
<path d="M1026.21 207.427C1030.54 210.376 1035.64 211.97 1040.88 212.005C1040.88 211.788 1037.46 211.39 1033.41 210.105C1029.36 208.82 1026.3 207.228 1026.21 207.427Z" fill="#CC8F75"/>
<path d="M1134.81 185.714L1111.91 231.603L1124.27 276.823L1157.18 242.044L1189.62 181.77L1134.81 185.714Z" fill="#FFC9AE"/>
<path d="M1113.24 190.02C1113.24 190.02 1080.67 201.601 1080.67 203.754C1074.92 208.26 1055.76 254.602 1049.66 263.36L1032.22 289.145L1046.84 232.073L1014.68 222.628C1014.68 222.628 987.213 288.892 983.883 303.621C981.87 312.367 982.057 321.475 984.426 330.13L984.607 329.986C986.669 336.596 990.919 342.307 996.658 346.181C1010.28 354.921 1023.02 356.567 1036.05 346.941C1043.43 341.512 1051.87 334.907 1059.57 328.755L1061.6 376.671H1079.35C1079.35 373.975 1078.81 341.15 1078.81 341.15C1081.14 333.383 1082.95 325.47 1084.24 317.464C1085.85 306.172 1112.3 232.019 1112.3 232.019L1132.81 192.463L1133.29 177.824L1113.24 190.02Z" fill="#38B8FF"/>
<path d="M1061.22 376.253C1061.13 375.763 1061.09 375.266 1061.08 374.769C1061 373.707 1060.91 372.278 1060.8 370.48C1060.61 366.644 1060.33 361.252 1059.99 354.593C1059.37 341.04 1058.54 322.384 1057.6 301.466V301.357C1057.98 299.385 1058.4 297.268 1058.81 295.132C1063.1 273.165 1067.01 253.26 1069.85 238.766L1073.31 221.721C1073.71 219.767 1074.05 218.228 1074.29 217.088L1074.56 215.894C1074.59 215.758 1074.63 215.624 1074.68 215.496C1074.71 215.633 1074.71 215.775 1074.68 215.912L1074.48 217.125L1073.67 221.793L1070.52 238.911C1067.75 253.387 1063.95 273.292 1059.66 295.331C1059.27 297.449 1058.85 299.566 1058.47 301.538V301.43C1059.3 322.347 1060.04 341.021 1060.57 354.557C1060.79 361.234 1060.97 366.626 1061.09 370.462C1061.09 372.272 1061.09 373.701 1061.2 374.769C1061.25 375.262 1061.25 375.758 1061.22 376.253Z" fill="#263238"/>
<path d="M1079.44 333.731C1079.45 333.226 1079.5 332.723 1079.6 332.229C1079.77 331.18 1079.97 329.75 1080.24 327.959C1080.87 324.159 1081.74 318.911 1082.81 312.252C1085.07 298.934 1088.24 280.694 1091.6 260.519C1093.9 247.327 1096.05 234.95 1097.9 224.328V224.22C1102.42 213.978 1106.2 205.419 1108.88 199.321C1110.2 196.39 1111.27 194.055 1112.03 192.354L1112.88 190.545C1112.97 190.326 1113.09 190.12 1113.22 189.93C1113.18 190.154 1113.1 190.373 1113.01 190.581C1112.81 191.088 1112.57 191.703 1112.27 192.391C1111.54 194.092 1110.56 196.462 1109.33 199.43C1106.71 205.564 1103.04 214.177 1098.66 224.473C1096.85 235.023 1094.75 247.418 1092.49 260.663C1088.87 280.821 1085.76 299.043 1083.44 312.361C1082.25 318.893 1081.29 324.213 1080.58 327.995L1079.77 332.247C1079.69 332.749 1079.58 333.245 1079.44 333.731Z" fill="#263238"/>
<path d="M1017 328.411C1016.87 328.321 1018.26 326.33 1020.22 322.983C1022.76 318.518 1024.95 313.859 1026.77 309.049C1028.57 304.325 1030.07 299.49 1031.26 294.573C1032.16 290.755 1032.58 288.367 1032.72 288.385C1032.81 288.954 1032.81 289.535 1032.72 290.104C1032.61 291.208 1032.38 292.782 1032 294.718C1031.01 299.771 1029.58 304.729 1027.74 309.538C1025.91 314.355 1023.62 318.984 1020.9 323.363C1019.84 325.045 1018.93 326.348 1018.24 327.217C1017.56 328.085 1017 328.465 1017 328.411Z" fill="#263238"/>
<g opacity="0.2">
<path d="M1019.48 325.767C1019.18 325.831 1018.91 325.96 1018.67 326.145C1018.43 326.33 1018.24 326.567 1018.11 326.837C1017.98 327.106 1017.91 327.403 1017.91 327.703C1017.9 328.004 1017.97 328.301 1018.1 328.572C1018.41 329.099 1018.88 329.518 1019.43 329.771C1019.99 330.023 1020.61 330.098 1021.21 329.983C1022.42 329.735 1023.52 329.137 1024.38 328.264C1027 325.572 1028.87 322.241 1029.81 318.602C1032.58 309.88 1032.7 300.507 1032.81 291.459C1030.28 303.403 1025.8 314.848 1019.55 325.333" fill="black"/>
</g>
<g opacity="0.2">
<path d="M1059.03 330.02C1053.77 321.2 1051.46 310.928 1052.46 300.706C1053.44 286.773 1060.21 274.034 1065.25 261.023C1062.36 274.703 1060.69 288.293 1058.02 301.448C1058.02 301.448 1059.41 321.009 1059.45 329.676" fill="black"/>
</g>
<g opacity="0.2">
<path d="M1081.51 321.298C1082.92 300.452 1084.35 279.571 1088.02 259.015C1091.75 237.975 1098.83 217.672 1109.01 198.885C1106.39 207.136 1098.3 224.471 1098.3 224.471C1098.3 224.471 1086.63 285.994 1081.56 317.046" fill="black"/>
</g>
<path d="M1078.88 345.239L1081.79 377.557H1066.54L1053.04 377.34C1047.9 377.897 1042.72 378.031 1037.55 377.738C1037.3 377.745 1037.05 377.696 1036.83 377.593C1036.03 377.478 1035.24 377.284 1034.48 377.014C1033.1 376.507 1031.69 375.621 1031.91 374.101C1032.58 369.468 1035.33 369.088 1035.33 369.088H1036.7L1036.81 368.69C1034.73 368.69 1032.96 368.69 1032.03 368.527C1031.6 368.527 1031.34 368.437 1031.31 368.364C1031.27 368.292 1025.88 367.731 1026.31 364.872C1026.91 360.095 1029.66 359.715 1029.66 359.715L1034.11 359.425C1031.96 359.425 1030.11 359.425 1029.17 359.263C1028.74 359.263 1028.49 359.172 1028.45 359.1C1028.41 359.027 1023.02 358.466 1023.46 355.607C1024.12 350.975 1026.88 350.595 1026.88 350.595L1030.49 350.342C1028.68 350.342 1027.29 350.342 1026.48 350.197C1026.04 350.197 1025.79 350.107 1025.75 350.034C1025.72 349.962 1020.32 349.401 1020.76 346.542C1021.5 341.891 1024.23 341.62 1024.23 341.62C1024.23 341.62 1032.74 341.005 1038.58 340.769C1038.58 340.769 1045.22 334.798 1047.83 335.07C1051.74 335.486 1074.43 343.864 1074.43 343.864L1078.88 345.239Z" fill="#FFC9AE"/>
<path d="M1050.26 368.095C1047.78 368.653 1045.24 368.896 1042.69 368.818C1040.2 369.049 1037.68 368.97 1035.2 368.583C1037.68 368.021 1040.22 367.772 1042.77 367.841C1045.26 367.599 1047.78 367.685 1050.26 368.095Z" fill="#CC8F75"/>
<path d="M1050.29 358.917C1046.74 359.54 1043.15 359.836 1039.54 359.804C1035.93 360.092 1032.3 360.055 1028.69 359.695C1032.24 359.074 1035.83 358.783 1039.44 358.827C1043.05 358.528 1046.68 358.558 1050.29 358.917Z" fill="#CC8F75"/>
<g opacity="0.78">
<path d="M1049.57 349.619C1045.98 350.233 1042.35 350.523 1038.71 350.487C1035.1 350.785 1031.46 350.749 1027.86 350.379C1031.41 349.771 1035 349.48 1038.6 349.51C1042.25 349.206 1045.93 349.243 1049.57 349.619Z" fill="#CC8F75"/>
</g>
<path d="M1036.18 340.859C1037.31 341.078 1038.45 341.169 1039.6 341.131L1047.87 341.402L1056.14 341.71C1057.28 341.826 1058.43 341.826 1059.58 341.71C1058.47 341.388 1057.33 341.206 1056.17 341.167C1054.06 340.968 1051.13 340.751 1047.89 340.642C1044.65 340.533 1041.73 340.533 1039.6 340.642C1038.46 340.579 1037.31 340.652 1036.18 340.859Z" fill="#CC8F75"/>
<path d="M1204.61 77.6329C1208.45 68.3139 1220.57 64.0616 1230.05 67.5358C1239.53 71.0101 1245.83 80.709 1246.97 90.7337C1247.75 95.6802 1246.73 100.743 1244.07 104.993C1242.49 107.068 1240.5 108.8 1238.22 110.081C1235.94 111.363 1233.43 112.168 1230.83 112.448C1226.19 113.096 1221.46 112.498 1217.13 110.715C1212.79 108.933 1209.01 106.03 1206.17 102.305C1203.33 98.5791 1201.53 94.165 1200.96 89.5147C1200.38 84.8645 1201.06 80.1454 1202.91 75.8414" fill="#263238"/>
<path d="M1243.18 78.861C1243.18 78.861 1243 79.3495 1242.5 80.1095C1241.77 81.1666 1240.96 82.1594 1240.07 83.0771C1237.11 86.15 1233.45 88.4756 1229.41 89.8628C1225.38 91.25 1221.07 91.6593 1216.84 91.057C1215.57 90.8753 1214.32 90.5909 1213.09 90.2066C1212.63 90.1014 1212.19 89.9112 1211.79 89.6456C1211.79 89.4828 1213.74 90.098 1216.91 90.3875C1221.03 90.7875 1225.19 90.2999 1229.1 88.9577C1233.01 87.6155 1236.59 85.4498 1239.6 82.6067C1241.86 80.4172 1243 78.7705 1243.18 78.861Z" fill="#455A64"/>
<path d="M1247.15 89.5014C1247.15 89.5014 1246.82 89.8995 1246.12 90.4785C1245.11 91.3015 1244.06 92.0629 1242.97 92.7585C1239.36 95.0989 1235.37 96.7779 1231.17 97.7166C1228.84 98.1837 1226.47 98.366 1224.09 98.2594C1222.16 98.1632 1220.25 97.8475 1218.39 97.3185C1217.15 96.9863 1215.93 96.5318 1214.78 95.9613C1213.96 95.5633 1213.51 95.3099 1213.54 95.2556C1213.58 95.2014 1215.46 95.9432 1218.59 96.6851C1220.42 97.1049 1222.29 97.3473 1224.17 97.4089C1226.47 97.4522 1228.77 97.2459 1231.02 96.7937C1235.12 95.8651 1239.04 94.3086 1242.66 92.1795C1245.43 90.569 1247.06 89.3747 1247.15 89.5014Z" fill="#455A64"/>
<path d="M1106.75 105.48C1084.35 56.2068 1137.64 31.4708 1166.7 39.6679C1194.02 47.3945 1205.68 60.9839 1210.13 79.2599C1214.58 97.5359 1214.42 117.259 1207.25 134.757C1203.63 143.334 1197.35 152.074 1188.12 153.142" fill="#263238"/>
<path d="M1133.51 227.241C1133.11 203.718 1132.84 171.364 1132.84 171.508C1132.84 171.653 1112.61 168.143 1108.41 141.742C1106.33 128.623 1106.99 107.09 1108.09 89.5015C1109.1 73.6503 1119.58 54.2343 1135.38 55.899L1184.65 68.3846C1186.96 68.629 1189.1 69.7336 1190.64 71.4796C1192.18 73.2256 1193 75.4857 1192.96 77.8121L1189.73 179.723" fill="#FFC9AE"/>
<path d="M1120.14 108.193C1120.13 109.069 1120.45 109.917 1121.05 110.558C1121.65 111.2 1122.47 111.584 1123.34 111.631C1123.77 111.67 1124.2 111.624 1124.61 111.495C1125.02 111.365 1125.4 111.155 1125.73 110.877C1126.05 110.599 1126.32 110.258 1126.52 109.875C1126.71 109.492 1126.82 109.073 1126.85 108.645C1126.87 107.768 1126.55 106.917 1125.95 106.275C1125.35 105.632 1124.53 105.249 1123.65 105.207C1123.22 105.167 1122.79 105.214 1122.38 105.343C1121.97 105.473 1121.59 105.683 1121.27 105.961C1120.94 106.239 1120.67 106.58 1120.48 106.963C1120.29 107.346 1120.17 107.764 1120.14 108.193Z" fill="#263238"/>
<path d="M1156.69 108.193C1156.67 109.07 1157 109.921 1157.59 110.563C1158.19 111.205 1159.02 111.589 1159.9 111.631C1160.32 111.67 1160.75 111.624 1161.16 111.495C1161.57 111.365 1161.95 111.155 1162.28 110.877C1162.61 110.599 1162.87 110.258 1163.07 109.875C1163.26 109.492 1163.38 109.073 1163.41 108.645C1163.42 107.769 1163.1 106.921 1162.5 106.28C1161.9 105.638 1161.08 105.254 1160.2 105.207C1159.78 105.167 1159.34 105.214 1158.93 105.343C1158.53 105.473 1158.15 105.683 1157.82 105.961C1157.49 106.239 1157.22 106.58 1157.03 106.963C1156.84 107.346 1156.72 107.764 1156.69 108.193Z" fill="#263238"/>
<path d="M1134.85 126.939C1132.93 126.348 1130.94 125.989 1128.93 125.872C1127.99 125.781 1127.12 125.6 1126.96 124.967C1126.88 124.003 1127.09 123.037 1127.58 122.198L1130.33 115.123C1134.14 105.026 1136.91 96.7385 1136.51 96.5937C1136.12 96.449 1132.68 104.501 1128.86 114.58C1127.94 117.059 1127.05 119.43 1126.22 121.71C1125.63 122.82 1125.46 124.103 1125.73 125.329C1125.87 125.66 1126.07 125.956 1126.34 126.194C1126.61 126.432 1126.92 126.607 1127.27 126.704C1127.78 126.838 1128.31 126.911 1128.84 126.921C1130.84 127.19 1132.86 127.196 1134.85 126.939Z" fill="#263238"/>
<path d="M1132.8 171.617C1145.24 171.803 1157.48 168.533 1168.16 162.172C1168.16 162.172 1159.21 180.575 1132.8 178.077V171.617Z" fill="#CC8F75"/>
<path d="M1187.91 111.068C1188.3 110.888 1202.04 104.808 1202.2 120.605C1202.36 136.402 1186.46 133.271 1186.42 132.873C1186.39 132.475 1187.91 111.068 1187.91 111.068Z" fill="#FFC9AE"/>
<path d="M1191.2 126.832C1191.2 126.832 1191.47 127.013 1191.94 127.23C1192.6 127.499 1193.34 127.499 1194.01 127.23C1195.67 126.596 1197.05 123.937 1197.1 121.096C1197.12 119.737 1196.85 118.39 1196.29 117.151C1196.13 116.659 1195.86 116.213 1195.49 115.85C1195.13 115.488 1194.68 115.22 1194.19 115.07C1193.87 114.989 1193.54 115.02 1193.24 115.159C1192.95 115.298 1192.71 115.535 1192.58 115.83C1192.36 116.282 1192.47 116.59 1192.38 116.626C1192.29 116.662 1192.03 116.355 1192.16 115.703C1192.25 115.313 1192.47 114.963 1192.78 114.708C1193.21 114.377 1193.75 114.228 1194.3 114.292C1194.95 114.415 1195.55 114.703 1196.06 115.127C1196.57 115.552 1196.96 116.099 1197.19 116.717C1197.89 118.075 1198.23 119.587 1198.19 121.114C1198.19 124.298 1196.52 127.284 1194.24 127.972C1193.82 128.103 1193.37 128.135 1192.94 128.066C1192.5 127.997 1192.09 127.829 1191.73 127.574C1191.24 127.212 1191.15 126.868 1191.2 126.832Z" fill="#CC8F75"/>
<path d="M1135.92 137.147C1136.38 138.524 1137.04 139.823 1137.89 141.001C1138.31 141.589 1138.85 142.082 1139.47 142.447C1140.1 142.812 1140.79 143.04 1141.51 143.118C1142.3 143.123 1143.08 142.926 1143.77 142.546C1144.46 142.166 1145.05 141.616 1145.47 140.947C1146.28 139.622 1146.66 138.08 1146.56 136.531C1146.56 135.138 1145.85 133.473 1144.48 133.31C1143.89 133.291 1143.31 133.422 1142.79 133.69L1135.55 136.622" fill="#CC8F75"/>
<path d="M1138.82 143.101C1140.13 143.201 1141.45 143.041 1142.71 142.63C1143.97 142.131 1145.02 141.185 1145.64 139.97C1145.97 139.221 1146.14 138.411 1146.14 137.591C1146.14 136.771 1145.97 135.961 1145.64 135.211C1145.47 134.826 1145.26 134.462 1145 134.126C1144.71 133.818 1144.77 133.836 1144.46 133.891C1144.15 133.945 1143.68 134.198 1143.29 134.343L1142.09 134.831C1140.53 135.465 1139.12 136.008 1137.95 136.46C1136.7 137.07 1135.36 137.468 1133.98 137.636C1135.08 136.774 1136.3 136.09 1137.6 135.61C1138.74 135.049 1140.12 134.415 1141.64 133.8L1142.81 133.275C1143.25 133.069 1143.7 132.888 1144.15 132.732C1144.5 132.615 1144.88 132.615 1145.22 132.732C1145.54 132.875 1145.82 133.092 1146.04 133.366C1146.36 133.8 1146.63 134.267 1146.85 134.759C1147.24 135.684 1147.43 136.685 1147.39 137.69C1147.35 138.695 1147.08 139.678 1146.61 140.568C1145.85 141.999 1144.55 143.072 1143 143.553C1141.98 143.878 1140.89 143.921 1139.85 143.68C1139.14 143.427 1138.8 143.173 1138.82 143.101Z" fill="#263238"/>
<path d="M1205.64 100.251C1204.01 100.142 1190.96 101.825 1192 126.09C1192.95 148.763 1208.84 143.769 1213.93 135.246C1218.72 127.158 1221.47 101.372 1205.64 100.251Z" fill="#455A64"/>
<path d="M1213.71 103.128C1213.69 102.917 1213.69 102.705 1213.71 102.494C1213.71 102.006 1213.71 101.409 1213.71 100.685C1213.71 99.0202 1213.6 96.686 1213.51 93.7727C1213.4 87.8194 1213.24 79.5499 1213.04 69.9777L1213.33 70.2672H1206.45L1206.76 69.9596C1206.76 71.7691 1206.87 73.669 1206.91 75.6052C1207.14 84.6527 1207.36 93.1755 1207.52 100.287V100.486H1207.3C1204.55 101.127 1202.1 102.699 1200.37 104.937C1199.07 106.69 1198.13 108.682 1197.61 110.8C1197.26 112.16 1197.02 113.546 1196.9 114.944C1196.9 115.432 1196.9 115.794 1196.9 116.048C1196.9 116.301 1196.9 116.428 1196.9 116.428C1196.88 116.302 1196.88 116.173 1196.9 116.048C1196.9 115.794 1196.9 115.432 1196.9 114.926C1196.97 113.512 1197.16 112.107 1197.48 110.728C1197.97 108.553 1198.9 106.503 1200.21 104.702C1202 102.328 1204.56 100.656 1207.45 99.9793L1207.25 100.233C1207.05 93.1393 1206.8 84.6708 1206.54 75.569C1206.54 73.6329 1206.44 71.7148 1206.4 69.9053V69.5977H1213.73V69.8872C1213.84 79.4414 1213.93 87.7289 1214 93.6822C1214 96.5955 1214 98.9298 1214 100.594V102.404C1213.92 102.653 1213.83 102.896 1213.71 103.128Z" fill="#455A64"/>
<path d="M1205.64 69.9235C1200.74 59.6623 1192.63 51.2814 1182.53 46.0562C1176.31 42.9515 1169.78 40.5248 1163.04 38.8181C1163.04 38.8181 1172.54 36.5743 1187.91 43.3962C1194.87 46.5085 1201.91 50.6342 1206.56 56.6056C1209.51 60.4598 1213.2 67.9693 1213.18 69.9054L1205.64 69.9235Z" fill="#455A64"/>
<path d="M1203.9 142.015C1203.74 142.003 1203.58 141.96 1203.43 141.888C1203.01 141.712 1202.6 141.5 1202.22 141.255C1200.81 140.334 1199.64 139.094 1198.8 137.636C1197.61 135.439 1196.89 133.016 1196.7 130.524C1196.43 127.515 1196.43 124.487 1196.7 121.477C1196.95 118.461 1197.46 115.472 1198.2 112.538C1198.72 110.106 1199.6 107.764 1200.81 105.589C1201.65 104.13 1202.83 102.89 1204.24 101.97C1204.63 101.722 1205.03 101.516 1205.46 101.355C1205.6 101.284 1205.76 101.241 1205.93 101.229C1205.93 101.229 1205.33 101.5 1204.37 102.169C1203.06 103.131 1201.96 104.366 1201.17 105.788C1200.05 107.952 1199.23 110.26 1198.74 112.647C1198.04 115.561 1197.55 118.525 1197.3 121.513C1197.05 124.494 1197.05 127.489 1197.3 130.47C1197.46 132.899 1198.11 135.269 1199.21 137.437C1199.99 138.864 1201.08 140.1 1202.4 141.056C1203.38 141.743 1203.92 141.961 1203.9 142.015Z" fill="#263238"/>
<path d="M1151.56 138.354L1139.06 140.806C1137.39 141.133 1136.31 142.75 1136.64 144.417L1136.82 145.358C1137.15 147.025 1138.76 148.112 1140.43 147.785L1152.93 145.332C1154.6 145.005 1155.68 143.388 1155.36 141.721L1155.17 140.78C1154.85 139.113 1153.23 138.027 1151.56 138.354Z" fill="#455A64"/>
<path d="M1153.62 140.186L1209.08 122.779C1209.41 122.669 1209.76 122.626 1210.11 122.652C1210.46 122.678 1210.8 122.773 1211.11 122.931C1211.42 123.089 1211.7 123.308 1211.92 123.573C1212.15 123.839 1212.32 124.147 1212.43 124.48C1212.53 124.817 1212.57 125.173 1212.54 125.525C1212.51 125.878 1212.4 126.22 1212.23 126.531C1212.06 126.842 1211.83 127.115 1211.56 127.335C1211.28 127.555 1210.96 127.716 1210.62 127.809L1153.89 143.136L1153.62 140.186Z" fill="#455A64"/>
<path d="M1194.6 132.531C1195.19 132.283 1195.79 132.072 1196.41 131.898L1201.47 130.341C1203.61 129.69 1206.21 129.002 1208.98 128.098C1209.66 127.853 1210.27 127.471 1210.79 126.976C1211.3 126.459 1211.58 125.762 1211.57 125.04C1211.57 124.688 1211.46 124.346 1211.26 124.06C1211.05 123.775 1210.76 123.56 1210.43 123.447C1209.67 123.241 1208.87 123.241 1208.11 123.447L1191.49 128.876L1186.42 130.45C1185.83 130.655 1185.22 130.818 1184.61 130.939C1185.19 130.653 1185.8 130.411 1186.42 130.215L1191.43 128.405C1195.67 126.976 1201.49 124.967 1208.04 122.977C1208.91 122.713 1209.84 122.713 1210.7 122.977C1211.15 123.128 1211.54 123.415 1211.81 123.798C1212.09 124.181 1212.24 124.64 1212.24 125.112C1212.25 125.548 1212.16 125.981 1212 126.385C1211.84 126.79 1211.59 127.156 1211.28 127.464C1210.7 128.022 1210.01 128.448 1209.25 128.713C1206.4 129.618 1203.83 130.233 1201.67 130.848L1196.55 132.205C1195.91 132.377 1195.26 132.486 1194.6 132.531Z" fill="#263238"/>
<path d="M1165.51 100.502C1165.07 101.171 1161.27 99.1083 1156.57 99.9406C1151.86 100.773 1148.95 103.958 1148.33 103.469C1148.03 103.27 1148.33 102.094 1149.6 100.664C1151.31 98.814 1153.59 97.5854 1156.08 97.1721C1158.55 96.7272 1161.1 97.1221 1163.32 98.294C1165.03 99.1444 1165.72 100.212 1165.51 100.502Z" fill="#CC8F75"/>
<path d="M1164.96 101.1C1164.08 100.937 1163.22 100.719 1162.37 100.449C1160.31 99.9918 1158.17 99.9918 1156.11 100.449C1154.06 100.93 1152.14 101.85 1150.48 103.145C1149.2 104.158 1148.53 104.954 1148.42 104.846C1148.31 104.737 1148.82 103.832 1150.05 102.638C1151.69 101.094 1153.71 100.019 1155.91 99.526C1158.1 99.0326 1160.39 99.1387 1162.53 99.8333C1164.16 100.34 1165.01 100.955 1164.96 101.1Z" fill="#263238"/>
<path d="M1167.4 90.4782C1167.01 91.7449 1162.97 91.6544 1158.17 91.8897C1153.38 92.1249 1149.33 92.3963 1148.87 91.1659C1148.66 90.5506 1149.49 89.6278 1151.14 88.7954C1155.51 86.8224 1160.48 86.6406 1164.98 88.2887C1166.68 88.9945 1167.57 89.863 1167.4 90.4782Z" fill="#263238"/>
<path d="M1127.61 103.291C1127.25 103.49 1126.55 102.82 1125.39 102.024C1123.96 101.02 1122.32 100.358 1120.59 100.088C1116.5 99.4185 1113.21 101.3 1112.74 100.631C1112.52 100.359 1113.08 99.4185 1114.55 98.5138C1116.51 97.3655 1118.8 96.9307 1121.05 97.2833C1123.33 97.6022 1125.4 98.7961 1126.82 100.613C1127.83 102.024 1127.92 103.128 1127.61 103.291Z" fill="#CC8F75"/>
<path d="M1128.06 105.243C1127.94 105.243 1127.32 104.429 1126.04 103.289C1124.39 101.802 1122.39 100.772 1120.23 100.302C1118.06 99.8322 1115.81 99.9386 1113.7 100.611C1112.07 101.117 1111.13 101.678 1111.06 101.552C1110.98 101.425 1111.8 100.683 1113.48 99.9773C1115.69 99.0985 1118.11 98.8969 1120.43 99.3983C1122.75 99.8994 1124.87 101.091 1126.51 102.818C1127.24 103.467 1127.78 104.307 1128.06 105.243Z" fill="#263238"/>
<path d="M1129.69 92.0707C1129.46 93.3555 1125.6 93.7355 1121.04 93.7897C1116.48 93.844 1112.61 93.5002 1112.36 92.1974C1112.1 90.8946 1115.97 89.1031 1121 89.067C1126.04 89.0308 1129.94 90.8041 1129.69 92.0707Z" fill="#263238"/>
<path d="M1172.31 54.6309C1169.23 58.7889 1166.79 63.381 1165.07 68.2565C1164.22 70.7006 1163.92 73.3003 1164.19 75.8731C1164.45 78.4459 1165.28 80.9292 1166.61 83.1488C1169.39 87.2201 1174.15 89.3735 1178.5 91.7439C1182.84 94.1144 1187.27 97.3714 1188.36 102.185C1188.68 103.687 1188.05 108.97 1189.17 110.02C1190.73 111.449 1193.46 110.563 1194.6 108.808C1195.74 107.052 1196.55 101.244 1196.59 99.1267L1196.86 79.4031C1196.86 73.8298 1196.86 68.0575 1194.46 63.1175C1191.07 56.0966 1184.09 53.8528 1173.88 54.3595" fill="#263238"/>
<path d="M1107.47 94.2223C1108.25 87.5096 1110.84 81.1349 1114.96 75.7835C1119.13 70.4383 1125.15 66.8386 1131.83 65.6864C1138.49 64.6731 1145.22 66.5188 1151.95 66.8988C1158.68 67.2788 1166.32 65.6322 1169.83 59.896C1170.93 58.0865 1171.44 55.5894 1170.04 54.0332C1169.48 53.4734 1168.81 53.0306 1168.07 52.7304C1159.14 48.3958 1149.14 46.7788 1139.3 48.0799C1129.43 49.4459 1120.43 54.4781 1114.09 62.176C1110.99 66.0436 1108.8 70.5665 1107.7 75.4033C1106.59 80.24 1106.6 85.2643 1107.72 90.0967" fill="#263238"/>
<path d="M1103.48 84.3087C1103.34 84.04 1103.23 83.754 1103.17 83.4582C1102.92 82.6167 1102.74 81.7577 1102.63 80.8887C1102.23 77.664 1102.54 74.3931 1103.53 71.2983C1105 66.6721 1107.75 62.5603 1111.47 59.446C1116.03 55.6406 1121.53 53.1395 1127.4 52.208C1133.22 51.3137 1139.16 51.5781 1144.88 52.9861C1147.33 53.5719 1149.75 54.3092 1152.11 55.1937C1154.38 56.0261 1156.39 57.0032 1158.32 57.4556C1161.37 58.286 1164.55 58.5678 1167.69 58.288C1168.83 58.051 1169.89 57.5347 1170.77 56.7861C1170.6 57.0465 1170.4 57.2786 1170.16 57.4737C1169.47 58.0486 1168.66 58.4518 1167.79 58.6499C1164.56 59.0939 1161.29 58.9033 1158.14 58.0889C1156.15 57.6003 1154.09 56.7137 1151.86 55.9356C1149.49 55.0911 1147.08 54.3901 1144.62 53.8366C1139.01 52.5005 1133.19 52.2609 1127.49 53.1309C1121.8 54.0182 1116.45 56.3971 1111.98 60.0251C1108.35 63.015 1105.63 66.9559 1104.11 71.4069C1103.08 74.4053 1102.69 77.585 1102.95 80.7439C1103.2 83.0782 1103.57 84.2906 1103.48 84.3087Z" fill="#455A64"/>
<path d="M1132.68 42.7989C1133.21 42.6037 1133.78 42.4938 1134.34 42.4732C1135.88 42.3162 1137.42 42.3162 1138.96 42.4732C1144.08 42.9604 1148.95 44.9073 1153 48.0826C1155.33 49.8921 1157.29 51.9731 1159.37 53.3664C1161.22 54.5844 1163.29 55.4211 1165.47 55.8273C1166.92 56.1764 1168.43 56.2804 1169.92 56.1349C1170.97 56.0083 1171.49 55.7187 1171.55 55.7911C1171.11 56.1738 1170.57 56.4192 1169.99 56.4968C1168.46 56.7902 1166.88 56.7902 1165.34 56.4968C1163.04 56.1665 1160.84 55.3524 1158.88 54.1083C1156.69 52.6788 1154.68 50.6521 1152.42 48.8426C1148.49 45.7802 1143.82 43.8135 1138.89 43.1427C1135.09 42.6179 1132.7 43.0522 1132.68 42.7989Z" fill="#455A64"/>
<path d="M1212.58 91.2564C1212.58 91.2564 1212.22 90.6412 1211.46 89.6278C1210.34 88.2292 1208.9 87.1188 1207.27 86.3888C1204.84 85.3175 1202.21 84.7924 1199.56 84.8507C1196.27 85.0333 1193.01 85.4811 1189.8 86.1898C1186.52 86.9144 1183.15 87.1703 1179.8 86.9498C1177.06 86.7138 1174.38 86.0671 1171.83 85.0317C1170.12 84.3386 1168.49 83.4651 1166.97 82.426C1166.36 82.0593 1165.83 81.5945 1165.38 81.0508C1167.51 82.3055 1169.74 83.4061 1172.03 84.3441C1174.54 85.255 1177.17 85.8152 1179.83 86.0088C1183.11 86.1789 1186.39 85.905 1189.59 85.1946C1192.85 84.4684 1196.16 84.0384 1199.5 83.9098C1202.28 83.883 1205.02 84.5025 1207.52 85.7193C1209.21 86.5444 1210.66 87.7906 1211.73 89.3383C1212 89.7637 1212.23 90.2118 1212.42 90.6774C1212.57 91.0754 1212.62 91.2564 1212.58 91.2564Z" fill="#455A64"/>
<path d="M1209.73 78.5891C1209.73 78.5891 1209.39 77.9739 1208.61 76.9967C1207.47 75.6757 1206.02 74.6564 1204.39 74.0291C1201.95 73.1301 1199.33 72.8503 1196.76 73.2149C1193.84 73.5044 1190.68 74.391 1187.26 75.0244C1184.02 75.7676 1180.65 75.7179 1177.43 74.8796C1174.82 74.0754 1172.47 72.6106 1170.59 70.6273C1169.32 69.3237 1168.3 67.8039 1167.57 66.1397C1167.41 65.6905 1167.28 65.231 1167.19 64.7645C1167.16 64.5971 1167.16 64.4252 1167.19 64.2578C1168.19 66.4467 1169.56 68.4479 1171.24 70.1749C1173.09 71.9884 1175.36 73.3236 1177.85 74.0653C1180.94 74.8105 1184.18 74.8105 1187.27 74.0653C1190.62 73.432 1193.82 72.5634 1196.86 72.2558C1199.57 71.9213 1202.31 72.289 1204.83 73.3234C1206.52 74.0342 1208 75.1985 1209.08 76.6891C1209.46 77.2556 1209.68 77.9102 1209.73 78.5891Z" fill="#455A64"/>
<path d="M1141.85 259.557L1142.2 259.268L1143.19 258.472C1144.46 257.43 1145.67 256.318 1146.81 255.142C1148.67 253.241 1150.4 251.222 1152 249.099C1153.81 246.638 1155.93 243.67 1158.16 240.377C1162.61 233.79 1167.82 225.756 1173.36 216.509C1176.12 211.877 1178.98 206.937 1181.86 201.726C1182.58 200.423 1183.29 199.102 1184.03 197.781C1184.73 196.389 1185.56 195.067 1186.51 193.836C1187.5 192.566 1188.83 191.6 1190.35 191.05C1191.12 190.742 1191.97 190.648 1192.79 190.778C1193.22 190.883 1193.62 191.102 1193.95 191.411C1194.24 191.76 1194.46 192.167 1194.58 192.606V192.696C1194.41 193.251 1194.12 193.763 1193.73 194.198C1193.31 194.644 1192.75 194.915 1192.14 194.958C1191 194.956 1189.9 194.574 1189.01 193.872C1188.08 193.205 1187.38 192.254 1187.04 191.161C1186.69 190.068 1186.71 188.893 1187.09 187.811C1187.48 186.67 1188.31 185.729 1189.39 185.187C1190.44 184.64 1191.64 184.467 1192.81 184.698C1193.42 184.792 1194 185.041 1194.48 185.421C1194.97 185.801 1195.35 186.3 1195.59 186.87C1195.72 187.194 1195.75 187.547 1195.68 187.887C1195.61 188.227 1195.44 188.54 1195.2 188.788C1194.74 189.226 1194.18 189.533 1193.57 189.674C1192.54 189.909 1191.46 189.799 1190.51 189.36C1189.55 188.922 1188.76 188.18 1188.27 187.25C1187.77 186.289 1187.66 185.179 1187.94 184.137C1188.22 183.123 1188.78 182.212 1189.57 181.513C1190.34 180.819 1191.34 180.433 1192.37 180.428C1192.9 180.433 1193.41 180.561 1193.88 180.803C1194.34 181.046 1194.75 181.394 1195.05 181.821C1195.37 182.295 1195.48 182.873 1195.38 183.432C1195.33 183.706 1195.22 183.968 1195.07 184.201C1194.92 184.434 1194.72 184.634 1194.49 184.789C1194.07 185.08 1193.58 185.265 1193.07 185.328C1192.56 185.391 1192.04 185.33 1191.56 185.151C1191.09 184.948 1190.68 184.651 1190.33 184.277C1189.99 183.902 1189.73 183.46 1189.57 182.979C1189.26 182.053 1189.11 181.079 1189.13 180.102C1189.08 178.193 1189.58 176.308 1190.56 174.674C1191.09 173.852 1191.89 173.248 1192.83 172.973C1193.29 172.87 1193.77 172.861 1194.24 172.945C1194.71 173.028 1195.16 173.204 1195.56 173.461C1195.99 173.702 1196.35 174.057 1196.59 174.488C1196.83 174.919 1196.95 175.41 1196.93 175.904C1196.87 176.393 1196.67 176.854 1196.35 177.228C1196.02 177.601 1195.6 177.871 1195.12 178.003C1194.68 178.153 1194.21 178.193 1193.74 178.121C1193.28 178.048 1192.84 177.865 1192.46 177.587C1191.75 176.998 1191.27 176.168 1191.12 175.253C1190.98 174.372 1191.06 173.47 1191.36 172.629C1191.57 171.802 1191.86 171.001 1192.25 170.24C1192.64 169.488 1193.23 168.862 1193.97 168.431C1194.67 167.99 1195.47 167.717 1196.3 167.635C1196.73 167.573 1197.17 167.629 1197.57 167.797C1197.94 168.007 1198.27 168.297 1198.53 168.648C1198.78 168.993 1198.96 169.387 1199.05 169.806C1199.17 170.249 1199.12 170.721 1198.91 171.127C1198.67 171.484 1198.32 171.759 1197.92 171.915C1197.52 172.07 1197.08 172.098 1196.66 171.995C1195.88 171.86 1195.16 171.487 1194.6 170.928C1193.51 169.842 1192.87 168.391 1192.79 166.856C1192.69 165.385 1193.07 163.921 1193.89 162.695C1194.3 162.11 1194.82 161.617 1195.43 161.247C1196.04 160.91 1196.71 160.724 1197.4 160.704C1198.1 160.66 1198.78 160.865 1199.34 161.283C1199.61 161.499 1199.82 161.776 1199.96 162.09C1200.1 162.405 1200.17 162.748 1200.15 163.093C1200.06 163.743 1199.75 164.343 1199.28 164.801C1198.81 165.259 1198.2 165.549 1197.55 165.626C1196.94 165.66 1196.34 165.52 1195.82 165.221C1195.29 164.923 1194.86 164.479 1194.58 163.943C1194.01 162.978 1193.75 161.859 1193.84 160.74C1194.22 158.843 1194.89 157.014 1195.81 155.312L1197.78 150.824C1198.96 148.146 1199.9 146.065 1200.53 144.636L1201.26 143.025C1201.34 142.84 1201.43 142.658 1201.53 142.482C1201.47 142.674 1201.4 142.862 1201.31 143.043L1200.64 144.672L1198 150.915L1196.14 155.239C1195.28 156.953 1194.67 158.781 1194.33 160.668C1194.24 161.712 1194.49 162.757 1195.03 163.654C1195.29 164.124 1195.67 164.512 1196.13 164.775C1196.59 165.038 1197.12 165.163 1197.66 165.137C1198.21 165.064 1198.72 164.815 1199.12 164.427C1199.52 164.04 1199.79 163.534 1199.88 162.984C1199.89 162.702 1199.84 162.42 1199.72 162.163C1199.61 161.905 1199.43 161.678 1199.21 161.5C1198.73 161.168 1198.15 161.002 1197.57 161.03C1196.93 161.056 1196.31 161.229 1195.76 161.537C1195.21 161.879 1194.73 162.328 1194.36 162.857C1193.61 163.995 1193.26 165.352 1193.37 166.712C1193.43 168.122 1194.02 169.459 1195.01 170.457C1195.51 170.948 1196.14 171.271 1196.82 171.38C1197.15 171.479 1197.5 171.472 1197.83 171.362C1198.15 171.252 1198.43 171.043 1198.63 170.765C1198.73 170.459 1198.75 170.132 1198.69 169.816C1198.63 169.5 1198.49 169.204 1198.29 168.956C1198.09 168.671 1197.82 168.436 1197.51 168.268C1197.19 168.139 1196.84 168.095 1196.5 168.141C1195.74 168.203 1195.01 168.458 1194.37 168.883C1193.74 169.307 1193.23 169.887 1192.88 170.566C1192.52 171.287 1192.23 172.046 1192.03 172.828C1191.77 173.589 1191.7 174.404 1191.83 175.198C1191.95 175.975 1192.36 176.679 1192.97 177.171C1193.27 177.399 1193.63 177.55 1194 177.609C1194.38 177.669 1194.76 177.637 1195.12 177.514C1195.49 177.417 1195.82 177.211 1196.07 176.925C1196.33 176.638 1196.49 176.282 1196.53 175.904C1196.54 175.515 1196.44 175.133 1196.24 174.798C1196.04 174.463 1195.76 174.189 1195.41 174.004C1194.73 173.572 1193.91 173.423 1193.11 173.588C1192.32 173.847 1191.65 174.371 1191.2 175.072C1190.29 176.616 1189.83 178.384 1189.88 180.174C1189.86 181.073 1190 181.967 1190.29 182.816C1190.43 183.213 1190.64 183.578 1190.92 183.889C1191.2 184.2 1191.54 184.451 1191.92 184.626C1192.31 184.766 1192.74 184.811 1193.15 184.758C1193.57 184.704 1193.96 184.554 1194.31 184.318C1194.47 184.206 1194.62 184.061 1194.73 183.894C1194.84 183.727 1194.91 183.539 1194.95 183.342C1194.98 183.146 1194.98 182.944 1194.94 182.748C1194.9 182.552 1194.82 182.366 1194.71 182.201C1194.46 181.856 1194.13 181.575 1193.75 181.38C1193.37 181.185 1192.94 181.082 1192.52 181.079C1191.63 181.086 1190.77 181.421 1190.11 182.02C1189.37 182.584 1188.85 183.388 1188.64 184.293C1188.42 185.199 1188.53 186.15 1188.94 186.986C1189.35 187.821 1190.04 188.488 1190.89 188.872C1191.73 189.257 1192.69 189.336 1193.59 189.095C1194.09 188.991 1194.55 188.746 1194.92 188.39C1195.08 188.224 1195.19 188.017 1195.23 187.793C1195.28 187.569 1195.26 187.336 1195.18 187.123C1194.97 186.648 1194.65 186.232 1194.25 185.916C1193.84 185.599 1193.35 185.392 1192.84 185.313C1191.82 185.092 1190.75 185.244 1189.83 185.742C1188.9 186.239 1188.19 187.05 1187.81 188.028C1187.47 189.005 1187.46 190.069 1187.79 191.052C1188.12 192.034 1188.76 192.88 1189.62 193.456C1190.4 194.079 1191.37 194.423 1192.37 194.433C1192.84 194.363 1193.27 194.152 1193.61 193.828C1193.96 193.505 1194.19 193.085 1194.29 192.624V192.787C1194.22 192.455 1194.06 192.15 1193.82 191.907C1193.58 191.664 1193.28 191.492 1192.95 191.411C1192.23 191.308 1191.49 191.396 1190.82 191.665C1189.39 192.167 1188.13 193.064 1187.2 194.252C1186.28 195.459 1185.47 196.742 1184.77 198.089C1184.05 199.428 1183.33 200.749 1182.6 202.051C1179.71 207.263 1176.83 212.185 1174.04 216.817C1168.49 226.063 1163.19 234.062 1158.73 240.648C1156.47 243.923 1154.43 246.873 1152.49 249.334C1150.86 251.441 1149.09 253.441 1147.21 255.323C1145.58 256.918 1143.78 258.338 1141.85 259.557Z" fill="#263238"/>
<path d="M26.6765 119.045L9.72843 127.135C4.35557 129.7 2.07916 136.135 4.64393 141.508L12.7342 158.456C15.299 163.829 21.7337 166.105 27.1066 163.54L44.0546 155.45C49.4275 152.885 51.7039 146.45 49.1391 141.078L41.0488 124.13C38.4841 118.757 32.0493 116.48 26.6765 119.045Z" fill="#A1E4FF"/>
<path d="M27.0893 143.614C27.2735 142.594 27.5754 141.598 27.9889 140.647C28.2676 139.991 28.4924 139.313 28.6611 138.62C28.7634 138.118 28.6975 137.597 28.4735 137.136C28.3328 136.816 28.1142 136.536 27.8377 136.321C27.5612 136.107 27.2355 135.965 26.8902 135.908C26.0515 135.795 25.1983 135.95 24.4533 136.351C23.6447 136.714 22.9406 137.275 22.4062 137.982C21.9063 138.666 21.5705 139.456 21.4248 140.29L17.1642 139.931C17.3807 138.391 18.0135 136.939 18.9943 135.733C20.1332 134.356 21.5755 133.262 23.2081 132.536C24.9592 131.596 26.9574 131.219 28.9307 131.455C29.7336 131.574 30.4932 131.895 31.1389 132.387C31.7845 132.879 32.2951 133.526 32.6231 134.269C32.9631 134.943 33.1569 135.681 33.1918 136.435C33.2247 137.068 33.1526 137.701 32.9786 138.31C32.8072 138.879 32.5623 139.55 32.2393 140.336C31.916 141.058 31.6627 141.81 31.4827 142.581C31.3685 143.166 31.4551 143.773 31.7285 144.303L27.5682 146.289C27.1355 145.469 26.9682 144.534 27.0893 143.614ZM30.7267 152.372C30.3693 152.261 30.0399 152.075 29.7605 151.826C29.4811 151.577 29.2583 151.271 29.107 150.929C28.9437 150.605 28.8518 150.25 28.8376 149.888C28.8234 149.526 28.8872 149.165 29.0246 148.829C29.3365 148.123 29.8912 147.551 30.5882 147.219C31.2853 146.886 32.0784 146.814 32.824 147.016C33.1699 147.121 33.4892 147.3 33.7603 147.54C34.0314 147.779 34.248 148.074 34.3954 148.404C34.5664 148.737 34.6641 149.103 34.6819 149.476C34.6998 149.85 34.6374 150.223 34.4989 150.571C34.2081 151.288 33.6599 151.87 32.962 152.203C32.264 152.536 31.4668 152.596 30.7267 152.372Z" fill="#FAFAFA"/>
<path d="M960.509 95.7616L974.293 100.359C976.394 101.059 978.13 102.566 979.12 104.547C980.11 106.527 980.273 108.821 979.572 110.921L974.975 124.705C974.276 126.803 972.771 128.538 970.792 129.527C968.814 130.515 966.523 130.678 964.425 129.978L950.632 125.378C948.534 124.678 946.799 123.174 945.811 121.195C944.822 119.216 944.659 116.926 945.359 114.828L949.956 101.044C950.656 98.9459 952.16 97.2115 954.139 96.2226C956.117 95.2337 958.408 95.0713 960.506 95.7711L960.509 95.7616Z" fill="#A1E4FF"/>
<path d="M961.315 114.268C961.966 113.799 962.67 113.408 963.411 113.101C963.922 112.885 964.414 112.626 964.882 112.327C965.207 112.105 965.449 111.781 965.568 111.407C965.664 111.153 965.693 110.88 965.653 110.612C965.614 110.344 965.506 110.091 965.341 109.876C964.939 109.358 964.38 108.983 963.747 108.807C963.118 108.576 962.44 108.507 961.777 108.607C961.114 108.706 960.487 108.97 959.953 109.376L957.768 106.887C958.715 106.136 959.851 105.661 961.05 105.515C962.422 105.361 963.81 105.524 965.108 105.993C966.591 106.409 967.908 107.275 968.877 108.473C969.261 108.972 969.513 109.561 969.607 110.185C969.702 110.808 969.636 111.445 969.417 112.037C969.243 112.593 968.957 113.107 968.575 113.548C968.253 113.919 967.87 114.234 967.443 114.478C966.958 114.75 966.457 114.995 965.944 115.211C965.378 115.443 964.833 115.723 964.315 116.049C963.942 116.32 963.666 116.705 963.528 117.146L960.151 116.02C960.348 115.329 960.755 114.717 961.315 114.268ZM958.635 121.101C958.498 120.852 958.416 120.576 958.395 120.293C958.373 120.009 958.412 119.724 958.509 119.457C958.592 119.189 958.73 118.942 958.915 118.731C959.1 118.52 959.327 118.351 959.581 118.233C960.135 118.009 960.751 117.989 961.318 118.178C961.885 118.367 962.365 118.753 962.674 119.264C962.809 119.511 962.89 119.783 962.913 120.063C962.936 120.343 962.9 120.625 962.806 120.89C962.722 121.162 962.581 121.414 962.391 121.627C962.202 121.84 961.969 122.01 961.709 122.126C961.44 122.256 961.148 122.331 960.849 122.346C960.551 122.36 960.253 122.315 959.973 122.211C959.687 122.124 959.422 121.98 959.193 121.79C958.963 121.599 958.774 121.365 958.635 121.101Z" fill="#FAFAFA"/>
<path d="M1073.47 6.01728C1063.31 9.34081 1057.04 18.0305 1059.45 25.4249C1061.21 30.7949 1067.09 33.9966 1074.07 34.0705C1074.4 37.3748 1074.21 40.7113 1073.5 43.9559C1075.67 42.8709 1077.57 41.3071 1079.04 39.3825C1080.52 37.458 1081.54 35.2232 1082.02 32.847L1082.22 32.7817C1092.38 29.4582 1098.65 20.778 1096.23 13.3836C1093.82 5.98915 1083.63 2.69376 1073.47 6.01728Z" fill="#A1E4FF"/>
<path opacity="0.7" d="M1073.47 6.01728C1063.31 9.34081 1057.04 18.0305 1059.45 25.4249C1061.21 30.7949 1067.09 33.9966 1074.07 34.0705C1074.4 37.3748 1074.21 40.7113 1073.5 43.9559C1075.67 42.8709 1077.57 41.3071 1079.04 39.3825C1080.52 37.458 1081.54 35.2232 1082.02 32.847L1082.22 32.7817C1092.38 29.4582 1098.65 20.778 1096.23 13.3836C1093.82 5.98915 1083.63 2.69376 1073.47 6.01728Z" fill="#E2F7FF"/>
<path d="M1070.58 24.6362C1071.62 24.2979 1072.18 23.1854 1071.84 22.1513C1071.5 21.1172 1070.39 20.5532 1069.36 20.8914C1068.32 21.2297 1067.76 22.3422 1068.1 23.3763C1068.44 24.4104 1069.55 24.9744 1070.58 24.6362Z" fill="#A1E4FF"/>
<path d="M1079.83 19.5401C1079.95 19.9161 1079.96 20.32 1079.85 20.701C1079.74 21.0819 1079.53 21.4226 1079.23 21.6801C1078.93 21.9376 1078.56 22.1003 1078.16 22.1476C1077.77 22.1948 1077.37 22.1246 1077.02 21.9457C1076.67 21.7668 1076.38 21.4873 1076.18 21.1426C1075.99 20.7979 1075.9 20.4033 1075.93 20.0089C1075.96 19.6145 1076.11 19.2379 1076.35 18.9268C1076.6 18.6157 1076.93 18.384 1077.3 18.261C1077.81 18.0961 1078.36 18.1382 1078.83 18.3781C1079.3 18.618 1079.66 19.036 1079.83 19.5401Z" fill="#A1E4FF"/>
<path d="M1086.55 19.4135C1087.58 19.0753 1088.15 17.9628 1087.81 16.9287C1087.47 15.8946 1086.36 15.3305 1085.33 15.6688C1084.29 16.007 1083.73 17.1195 1084.07 18.1536C1084.4 19.1877 1085.52 19.7518 1086.55 19.4135Z" fill="#A1E4FF"/>
<path d="M78.305 271.344L60.2007 266.352C54.4613 264.769 48.5256 268.139 46.9429 273.878L41.9504 291.983C40.3677 297.722 43.7374 303.658 49.4768 305.241L67.5811 310.233C73.3205 311.816 79.2562 308.446 80.8389 302.707L85.8313 284.602C87.414 278.863 84.0444 272.927 78.305 271.344Z" fill="#A1E4FF"/>
<path d="M66.9129 277.333C65.7576 277.014 64.5507 276.926 63.3614 277.074C62.1721 277.223 61.0237 277.604 59.9817 278.196C58.9398 278.788 58.0248 279.58 57.2891 280.526C56.5534 281.472 56.0113 282.554 55.694 283.71C54.3648 288.53 55.0761 301.298 59.9347 302.638C64.7934 303.978 71.9405 293.408 73.2777 288.559C73.5976 287.404 73.6866 286.197 73.5398 285.007C73.393 283.818 73.0132 282.669 72.4221 281.626C71.831 280.584 71.0402 279.668 70.0949 278.931C69.1496 278.194 68.0683 277.651 66.9129 277.333ZM63.7548 288.785C63.2305 288.641 62.7608 288.344 62.4052 287.932C62.0495 287.521 61.8239 287.013 61.7568 286.473C61.6898 285.933 61.7843 285.386 62.0284 284.9C62.2725 284.414 62.6552 284.011 63.1282 283.743C63.6012 283.474 64.1432 283.352 64.6857 283.391C65.2281 283.431 65.7467 283.63 66.1758 283.965C66.6048 284.299 66.9252 284.753 67.0963 285.269C67.2673 285.785 67.2815 286.341 67.1369 286.865C66.9347 287.559 66.4677 288.145 65.8368 288.497C65.206 288.849 64.4619 288.939 63.7654 288.747L63.7548 288.785Z" fill="#FAFAFA"/>
<path d="M1312.17 173.729L1295.37 181.752C1290.04 184.297 1287.79 190.679 1290.33 196.006L1298.35 212.808C1300.9 218.136 1307.28 220.392 1312.61 217.848L1329.41 209.825C1334.74 207.28 1336.99 200.898 1334.45 195.571L1326.43 178.769C1323.88 173.441 1317.5 171.185 1312.17 173.729Z" fill="#A1E4FF"/>
<path d="M1314.44 188.543C1315.91 191.618 1315.54 194.85 1312.46 196.318C1309.39 197.786 1306.63 196.033 1305.17 192.971C1303.71 189.91 1304.07 186.658 1307.15 185.19C1310.22 183.722 1312.97 185.469 1314.44 188.543Z" fill="#FAFAFA"/>
<path d="M1317.33 206.521L1325.91 202.424L1323.48 197.325C1322.13 194.507 1317.2 194.056 1312.46 196.317C1307.73 198.579 1304.97 202.701 1306.32 205.519L1308.76 210.617L1317.33 206.521Z" fill="#FAFAFA"/>
<path d="M1287.18 41.563C1287.48 39.7113 1287.48 37.8248 1287.18 35.9731L1284.37 35.603C1284.15 34.5706 1283.81 33.565 1283.37 32.603L1285.43 30.653C1284.58 28.9854 1283.47 27.4606 1282.14 26.133L1279.64 27.493C1278.87 26.7926 1278.03 26.1759 1277.12 25.653L1277.64 22.8631C1275.98 22.0085 1274.2 21.4213 1272.35 21.123L1271.14 23.673C1270.63 23.623 1270.14 23.593 1269.58 23.593C1269.02 23.593 1268.52 23.5931 1268.01 23.673L1266.8 21.123C1264.95 21.415 1263.15 21.999 1261.48 22.853L1262 25.6431C1261.1 26.1659 1260.26 26.7826 1259.48 27.483L1256.98 26.123C1255.66 27.4507 1254.55 28.9754 1253.69 30.6431L1255.75 32.593C1255.31 33.555 1254.98 34.5606 1254.75 35.593L1251.95 35.963C1251.65 37.8138 1251.65 39.7023 1251.95 41.553L1254.75 41.923C1254.98 42.9555 1255.31 43.9611 1255.75 44.923L1253.69 46.873C1254.55 48.5419 1255.66 50.0669 1256.98 51.393L1259.48 50.0331C1260.26 50.7335 1261.1 51.3502 1262 51.873L1261.48 54.6631C1263.15 55.5171 1264.95 56.101 1266.8 56.393L1268.01 53.843C1268.52 53.893 1269.01 53.923 1269.58 53.923C1270.15 53.923 1270.58 53.923 1271.14 53.843L1272.35 56.393C1274.21 56.101 1276 55.5171 1277.67 54.6631L1277.15 51.873C1278.06 51.3502 1278.9 50.7335 1279.67 50.0331L1282.17 51.393C1283.5 50.0654 1284.61 48.5407 1285.46 46.873L1283.43 44.903C1283.87 43.9406 1284.2 42.9351 1284.43 41.903L1287.18 41.563ZM1269.58 44.993C1268.35 44.995 1267.14 44.6311 1266.12 43.9473C1265.09 43.2635 1264.29 42.2906 1263.82 41.1518C1263.35 40.013 1263.22 38.7595 1263.46 37.5501C1263.7 36.3407 1264.3 35.2297 1265.17 34.3578C1266.04 33.4859 1267.15 32.8924 1268.36 32.6523C1269.57 32.4122 1270.82 32.5364 1271.96 33.0092C1273.1 33.482 1274.07 34.282 1274.76 35.3081C1275.44 36.3341 1275.8 37.54 1275.8 38.773C1275.8 40.4219 1275.14 42.0024 1273.98 43.1683C1272.81 44.3342 1271.23 44.9904 1269.58 44.993Z" fill="#A1E4FF"/>
<path d="M865.206 21.6973C857.747 21.6973 851.695 26.5275 851.695 32.5101C851.695 36.3743 854.228 39.7486 858.037 41.66L855.746 47.3804L862.97 43.1643C863.711 43.2661 864.458 43.3192 865.206 43.323C872.672 43.323 878.724 38.4927 878.724 32.5101C878.724 26.5275 872.672 21.6973 865.206 21.6973Z" stroke="#A1E4FF" stroke-linecap="round" stroke-linejoin="round"/>
<path d="M860.506 33.4626C861.249 33.4626 861.851 32.8602 861.851 32.1171C861.851 31.3739 861.249 30.7715 860.506 30.7715C859.763 30.7715 859.16 31.3739 859.16 32.1171C859.16 32.8602 859.763 33.4626 860.506 33.4626Z" stroke="#A1E4FF" stroke-linecap="round" stroke-linejoin="round"/>
<path d="M866.551 32.1171C866.551 31.8509 866.472 31.5908 866.324 31.3695C866.176 31.1482 865.966 30.9758 865.72 30.8739C865.474 30.7721 865.203 30.7454 864.942 30.7973C864.681 30.8493 864.442 30.9774 864.253 31.1656C864.065 31.3538 863.937 31.5935 863.885 31.8545C863.833 32.1156 863.86 32.3861 863.962 32.632C864.064 32.8779 864.236 33.088 864.457 33.2359C864.679 33.3837 864.939 33.4626 865.205 33.4626C865.382 33.4635 865.557 33.4294 865.721 33.3621C865.885 33.2948 866.033 33.1957 866.158 33.0706C866.284 32.9454 866.383 32.7967 866.45 32.6331C866.517 32.4694 866.551 32.294 866.551 32.1171Z" stroke="#A1E4FF" stroke-linecap="round" stroke-linejoin="round"/>
<path d="M869.904 33.4626C870.647 33.4626 871.25 32.8602 871.25 32.1171C871.25 31.3739 870.647 30.7715 869.904 30.7715C869.161 30.7715 868.559 31.3739 868.559 32.1171C868.559 32.8602 869.161 33.4626 869.904 33.4626Z" stroke="#A1E4FF" stroke-linecap="round" stroke-linejoin="round"/>
<path d="M839.308 18.123C845.159 18.123 849.9 21.9182 849.9 26.5967C849.9 29.619 847.913 32.2619 844.932 33.7662L846.719 38.2445L841.06 34.9392C840.48 35.0193 839.894 35.0608 839.308 35.0634C833.463 35.0634 828.723 31.2751 828.723 26.5967C828.723 21.9182 833.463 18.123 839.308 18.123Z" stroke="#A1E4FF" stroke-linecap="round" stroke-linejoin="round"/>
<path d="M836.43 26.5981C836.43 26.362 836.36 26.1312 836.229 25.9348C836.098 25.7385 835.912 25.5855 835.694 25.4952C835.475 25.4048 835.235 25.3812 835.004 25.4272C834.772 25.4733 834.56 25.587 834.393 25.7539C834.226 25.9209 834.112 26.1336 834.066 26.3652C834.02 26.5967 834.043 26.8368 834.134 27.0549C834.224 27.273 834.377 27.4595 834.574 27.5906C834.77 27.7218 835.001 27.7918 835.237 27.7918C835.553 27.79 835.855 27.6637 836.079 27.4402C836.302 27.2167 836.429 26.9141 836.43 26.5981Z" stroke="#A1E4FF" stroke-linecap="round" stroke-linejoin="round"/>
<path d="M839.413 27.7918C840.072 27.7918 840.606 27.2574 840.606 26.5981C840.606 25.9388 840.072 25.4043 839.413 25.4043C838.753 25.4043 838.219 25.9388 838.219 26.5981C838.219 27.2574 838.753 27.7918 839.413 27.7918Z" stroke="#A1E4FF" stroke-linecap="round" stroke-linejoin="round"/>
<path d="M843.592 27.7918C844.252 27.7918 844.786 27.2574 844.786 26.5981C844.786 25.9388 844.252 25.4043 843.592 25.4043C842.933 25.4043 842.398 25.9388 842.398 26.5981C842.398 27.2574 842.933 27.7918 843.592 27.7918Z" stroke="#A1E4FF" stroke-linecap="round" stroke-linejoin="round"/>
<path d="M105.493 202.363C105.565 201.9 105.602 201.432 105.603 200.963C105.602 200.494 105.566 200.026 105.493 199.563L104.083 199.383C103.976 198.871 103.815 198.371 103.603 197.893L104.603 196.893C104.175 196.055 103.618 195.289 102.953 194.623L101.703 195.303C101.315 194.955 100.893 194.647 100.443 194.383L100.703 192.993C99.8682 192.564 98.9703 192.27 98.043 192.123L97.443 193.403C97.183 193.403 96.923 193.403 96.663 193.403C96.403 193.403 96.133 193.403 95.873 193.403L95.273 192.123C94.3458 192.27 93.4479 192.564 92.613 192.993L92.873 194.383C92.4235 194.647 92.0014 194.955 91.613 195.303L90.363 194.623C89.6977 195.289 89.1409 196.055 88.713 196.893L89.713 197.893C89.5009 198.371 89.34 198.871 89.233 199.383L87.833 199.563C87.7554 200.026 87.7186 200.494 87.723 200.963C87.7195 201.432 87.7563 201.9 87.833 202.363L89.233 202.543C89.34 203.052 89.5009 203.548 89.713 204.023L88.713 205.023C89.1418 205.858 89.6986 206.62 90.363 207.283L91.613 206.603C91.9963 206.957 92.4191 207.266 92.873 207.523L92.613 208.913C93.4479 209.342 94.3458 209.636 95.273 209.783L95.873 208.503C96.395 208.556 96.921 208.556 97.443 208.503L98.043 209.783C98.9703 209.636 99.8682 209.342 100.703 208.913L100.443 207.523C100.897 207.266 101.32 206.957 101.703 206.603L102.953 207.283C103.617 206.62 104.174 205.858 104.603 205.023L103.603 204.023C103.815 203.548 103.976 203.052 104.083 202.543L105.493 202.363ZM96.693 204.073C96.0779 204.073 95.4766 203.891 94.9652 203.549C94.4538 203.207 94.0551 202.721 93.8197 202.153C93.5844 201.585 93.5228 200.96 93.6428 200.356C93.7628 199.753 94.059 199.199 94.4939 198.764C94.9289 198.329 95.483 198.033 96.0863 197.913C96.6896 197.793 97.3149 197.854 97.8832 198.09C98.4514 198.325 98.9372 198.724 99.2789 199.235C99.6206 199.747 99.803 200.348 99.803 200.963C99.8005 201.782 99.4761 202.567 98.8999 203.149C98.3237 203.731 97.5418 204.063 96.723 204.073H96.693Z" fill="#A1E4FF"/>
<path d="M718.363 31.7375L679.727 21.3848L673.083 46.1801L711.719 56.5328L718.363 31.7375Z" stroke="#A1E4FF" stroke-miterlimit="10"/>
<path d="M679.727 21.3848L694.41 42.5782L718.03 31.8928" stroke="#A1E4FF" stroke-miterlimit="10"/>
<path d="M673.084 46.1789L690.291 37.328" stroke="#A1E4FF" stroke-miterlimit="10"/>
<path d="M711.722 56.5321L700.598 40.0898" stroke="#A1E4FF" stroke-miterlimit="10"/>
</svg>
