<svg width="295" height="153" viewBox="0 0 295 153" fill="none" xmlns="http://www.w3.org/2000/svg">
<path d="M201.68 62.2779L208.407 64.5212C209.432 64.8631 210.279 65.5983 210.762 66.5649C211.246 67.5316 211.325 68.6507 210.983 69.6759L208.74 76.4023C208.398 77.4263 207.664 78.2727 206.698 78.7552C205.733 79.2378 204.615 79.3171 203.591 78.9756L196.86 76.7307C195.836 76.3892 194.99 75.6549 194.507 74.6894C194.025 73.7239 193.945 72.6062 194.287 71.5822L196.53 64.8558C196.872 63.8318 197.606 62.9854 198.571 62.5028C199.537 62.0203 200.655 61.941 201.679 62.2825L201.68 62.2779Z" fill="#A1E4FF"/>
<path d="M202.074 71.31C202.392 71.0814 202.735 70.8904 203.097 70.7407C203.347 70.635 203.587 70.5085 203.815 70.3627C203.974 70.2547 204.092 70.0966 204.15 69.9137C204.197 69.79 204.211 69.6565 204.191 69.5258C204.172 69.3951 204.12 69.2715 204.039 69.1668C203.843 68.9137 203.57 68.7308 203.261 68.645C202.954 68.5324 202.623 68.4987 202.3 68.5472C201.976 68.5957 201.67 68.7248 201.409 68.9225L200.343 67.7079C200.805 67.3414 201.36 67.1097 201.945 67.0384C202.614 66.9634 203.292 67.0432 203.925 67.2717C204.649 67.4747 205.292 67.8976 205.764 68.4819C205.952 68.7257 206.075 69.0132 206.121 69.3174C206.167 69.6216 206.135 69.9326 206.028 70.2211C205.943 70.4926 205.804 70.7437 205.617 70.9587C205.46 71.1399 205.273 71.2932 205.065 71.4123C204.828 71.5452 204.584 71.6647 204.333 71.7702C204.057 71.8834 203.791 72.0202 203.538 72.179C203.356 72.3116 203.221 72.4993 203.154 72.7144L201.506 72.1648C201.602 71.828 201.801 71.5293 202.074 71.31ZM200.767 74.6446C200.7 74.5229 200.66 74.3884 200.649 74.25C200.639 74.1116 200.658 73.9726 200.705 73.8421C200.745 73.7115 200.813 73.5908 200.903 73.488C200.993 73.3851 201.104 73.3023 201.228 73.245C201.498 73.1355 201.799 73.126 202.076 73.2183C202.352 73.3106 202.587 73.4985 202.737 73.7483C202.803 73.8686 202.843 74.0014 202.854 74.138C202.865 74.2747 202.848 74.4122 202.802 74.5415C202.761 74.6745 202.692 74.7971 202.599 74.9011C202.507 75.0052 202.394 75.0883 202.266 75.1448C202.135 75.2084 201.993 75.2448 201.847 75.252C201.701 75.2591 201.556 75.2368 201.419 75.1864C201.28 75.1436 201.151 75.0737 201.039 74.9808C200.927 74.8878 200.834 74.7735 200.767 74.6446Z" fill="#FAFAFA"/>
<path d="M218.386 2.93531C213.428 4.5572 210.368 8.79778 211.549 12.4063C212.406 15.0269 215.274 16.5893 218.68 16.6253C218.843 18.2378 218.75 19.8661 218.404 21.4494C219.463 20.92 220.387 20.1568 221.107 19.2176C221.827 18.2785 222.324 17.1879 222.561 16.0283L222.658 15.9964C227.617 14.3745 230.677 10.1386 229.497 6.53009C228.317 2.92158 223.344 1.31342 218.386 2.93531Z" fill="#A1E4FF"/>
<path opacity="0.7" d="M218.386 2.93531C213.428 4.5572 210.368 8.79778 211.549 12.4063C212.406 15.0269 215.274 16.5893 218.68 16.6253C218.843 18.2378 218.75 19.8661 218.404 21.4494C219.463 20.92 220.387 20.1568 221.107 19.2176C221.827 18.2785 222.324 17.1879 222.561 16.0283L222.658 15.9964C227.617 14.3745 230.677 10.1386 229.497 6.53009C228.317 2.92158 223.344 1.31342 218.386 2.93531Z" fill="#E2F7FF"/>
<path d="M216.978 12.0207C217.483 11.8557 217.758 11.3128 217.593 10.8081C217.428 10.3035 216.885 10.0282 216.381 10.1933C215.876 10.3584 215.601 10.9013 215.766 11.4059C215.931 11.9105 216.474 12.1858 216.978 12.0207Z" fill="#A1E4FF"/>
<path d="M221.489 9.53365C221.549 9.71712 221.553 9.91426 221.501 10.1002C221.449 10.286 221.343 10.4523 221.196 10.578C221.05 10.7036 220.869 10.783 220.678 10.8061C220.486 10.8292 220.292 10.7949 220.12 10.7076C219.948 10.6203 219.805 10.4839 219.711 10.3157C219.616 10.1474 219.573 9.95491 219.588 9.76244C219.603 9.56997 219.674 9.3862 219.793 9.23436C219.913 9.08253 220.074 8.96947 220.258 8.90945C220.504 8.82897 220.772 8.84952 221.003 8.96658C221.233 9.08364 221.408 9.28762 221.489 9.53365Z" fill="#A1E4FF"/>
<path d="M224.771 9.47191C225.276 9.30684 225.551 8.76394 225.386 8.2593C225.221 7.75467 224.678 7.4794 224.173 7.64447C223.669 7.80954 223.394 8.35245 223.559 8.85708C223.724 9.36172 224.267 9.63699 224.771 9.47191Z" fill="#A1E4FF"/>
<path d="M12.9068 66.2485L4.70781 70.1639C2.10776 71.4056 1.00655 74.5199 2.24819 77.1199L6.16358 85.3189C7.40522 87.919 10.5195 89.0202 13.1196 87.7786L21.3186 83.8632C23.9187 82.6215 25.0199 79.5072 23.7782 76.9072L19.8628 68.7081C18.6212 66.1081 15.5069 65.0069 12.9068 66.2485Z" fill="#A1E4FF"/>
<path d="M14.0146 73.4778C14.731 74.978 14.5483 76.5555 13.0481 77.2719C11.5479 77.9883 10.2032 77.1327 9.48975 75.6386C8.77627 74.1446 8.95466 72.5579 10.4548 71.8415C11.955 71.1251 13.2982 71.9776 14.0146 73.4778Z" fill="#FAFAFA"/>
<path d="M15.4265 82.2515L19.6129 80.2523L18.4247 77.7642C17.7681 76.3891 15.3599 76.1686 13.0487 77.2723C10.7375 78.376 9.39523 80.3875 10.0519 81.7626L11.2401 84.2507L15.4265 82.2515Z" fill="#FAFAFA"/>
<path d="M292.686 29.2814C292.83 28.3777 292.83 27.4572 292.686 26.5535L291.315 26.3729C291.204 25.8691 291.041 25.3783 290.827 24.9089L291.832 23.9573C291.414 23.1435 290.873 22.3994 290.227 21.7515L289.007 22.4152C288.63 22.0734 288.217 21.7724 287.777 21.5173L288.031 20.1558C287.22 19.7387 286.349 19.4522 285.449 19.3066L284.859 20.551C284.61 20.5266 284.371 20.512 284.098 20.512C283.824 20.512 283.58 20.512 283.331 20.551L282.741 19.3066C281.836 19.4491 280.96 19.7341 280.145 20.1509L280.398 21.5124C279.958 21.7676 279.546 22.0685 279.169 22.4103L277.949 21.7467C277.303 22.3945 276.761 23.1386 276.343 23.9524L277.348 24.904C277.135 25.3735 276.971 25.8642 276.86 26.368L275.494 26.5486C275.344 27.4517 275.344 28.3734 275.494 29.2765L276.86 29.4571C276.971 29.9609 277.135 30.4516 277.348 30.9211L276.343 31.8727C276.76 32.6871 277.302 33.4313 277.949 34.0785L279.169 33.4148C279.546 33.7566 279.958 34.0576 280.398 34.3127L280.145 35.6742C280.96 36.091 281.836 36.376 282.741 36.5185L283.331 35.2741C283.58 35.2985 283.819 35.3131 284.098 35.3131C284.376 35.3131 284.586 35.3131 284.859 35.2741L285.449 36.5185C286.354 36.376 287.23 36.091 288.045 35.6742L287.792 34.3127C288.232 34.0576 288.644 33.7566 289.021 33.4148L290.241 34.0785C290.887 33.4306 291.429 32.6865 291.847 31.8727L290.856 30.9113C291.07 30.4417 291.233 29.951 291.344 29.4473L292.686 29.2814ZM284.098 30.9553C283.496 30.9562 282.907 30.7786 282.407 30.4449C281.906 30.1112 281.515 29.6364 281.285 29.0807C281.054 28.525 280.993 27.9133 281.111 27.3231C281.228 26.7329 281.517 26.1907 281.943 25.7652C282.368 25.3397 282.911 25.0501 283.501 24.9329C284.091 24.8158 284.703 24.8764 285.258 25.1071C285.814 25.3378 286.289 25.7283 286.623 26.229C286.956 26.7297 287.134 27.3182 287.133 27.9199C287.132 28.7245 286.811 29.4958 286.242 30.0648C285.673 30.6338 284.902 30.954 284.098 30.9553Z" fill="#A1E4FF"/>
<path d="M70.8032 65.7441C67.1631 65.7441 64.21 68.1014 64.21 71.021C64.21 72.9067 65.4458 74.5534 67.3045 75.4862L66.1866 78.2778L69.7121 76.2203C70.0737 76.27 70.4382 76.2959 70.8032 76.2978C74.4466 76.2978 77.3997 73.9405 77.3997 71.021C77.3997 68.1014 74.4466 65.7441 70.8032 65.7441Z" stroke="#A1E4FF" stroke-width="0.5" stroke-linecap="round" stroke-linejoin="round"/>
<path d="M68.5092 71.4852C68.8718 71.4852 69.1658 71.1912 69.1658 70.8285C69.1658 70.4659 68.8718 70.1719 68.5092 70.1719C68.1465 70.1719 67.8525 70.4659 67.8525 70.8285C67.8525 71.1912 68.1465 71.4852 68.5092 71.4852Z" stroke="#A1E4FF" stroke-width="0.5" stroke-linecap="round" stroke-linejoin="round"/>
<path d="M71.4597 70.8285C71.4597 70.6987 71.4212 70.5717 71.3491 70.4637C71.2769 70.3557 71.1744 70.2716 71.0544 70.2219C70.9344 70.1722 70.8024 70.1592 70.675 70.1845C70.5476 70.2098 70.4306 70.2724 70.3388 70.3642C70.247 70.456 70.1844 70.573 70.1591 70.7004C70.1338 70.8278 70.1468 70.9598 70.1965 71.0798C70.2462 71.1998 70.3303 71.3024 70.4383 71.3745C70.5463 71.4467 70.6732 71.4852 70.8031 71.4852C70.8895 71.4856 70.975 71.469 71.0549 71.4361C71.1348 71.4033 71.2073 71.3549 71.2684 71.2939C71.3295 71.2328 71.3778 71.1602 71.4107 71.0803C71.4435 71.0005 71.4602 70.9149 71.4597 70.8285Z" stroke="#A1E4FF" stroke-width="0.5" stroke-linecap="round" stroke-linejoin="round"/>
<path d="M73.0961 71.4852C73.4587 71.4852 73.7527 71.1912 73.7527 70.8285C73.7527 70.4659 73.4587 70.1719 73.0961 70.1719C72.7334 70.1719 72.4395 70.4659 72.4395 70.8285C72.4395 71.1912 72.7334 71.4852 73.0961 71.4852Z" stroke="#A1E4FF" stroke-width="0.5" stroke-linecap="round" stroke-linejoin="round"/>
<path d="M58.1645 64C61.02 64 63.3333 65.8521 63.3333 68.1352C63.3333 69.6102 62.3635 70.8999 60.9088 71.634L61.781 73.8195L59.0198 72.2065C58.7363 72.2456 58.4506 72.2658 58.1645 72.2671C55.3124 72.2671 52.999 70.4184 52.999 68.1352C52.999 65.8521 55.3124 64 58.1645 64Z" stroke="#A1E4FF" stroke-width="0.5" stroke-linecap="round" stroke-linejoin="round"/>
<path d="M56.7618 68.1353C56.7618 68.0201 56.7276 67.9074 56.6636 67.8116C56.5996 67.7158 56.5086 67.6412 56.4022 67.5971C56.2957 67.553 56.1786 67.5414 56.0656 67.5639C55.9526 67.5864 55.8488 67.6419 55.7673 67.7234C55.6858 67.8048 55.6304 67.9086 55.6079 68.0217C55.5854 68.1347 55.5969 68.2518 55.641 68.3582C55.6851 68.4647 55.7598 68.5557 55.8556 68.6197C55.9514 68.6837 56.064 68.7179 56.1792 68.7179C56.3334 68.717 56.4811 68.6553 56.5902 68.5463C56.6992 68.4372 56.7609 68.2895 56.7618 68.1353Z" stroke="#A1E4FF" stroke-width="0.5" stroke-linecap="round" stroke-linejoin="round"/>
<path d="M58.2154 68.7179C58.5371 68.7179 58.7979 68.4571 58.7979 68.1353C58.7979 67.8136 58.5371 67.5527 58.2154 67.5527C57.8936 67.5527 57.6328 67.8136 57.6328 68.1353C57.6328 68.4571 57.8936 68.7179 58.2154 68.7179Z" stroke="#A1E4FF" stroke-width="0.5" stroke-linecap="round" stroke-linejoin="round"/>
<path d="M60.2564 68.7179C60.5781 68.7179 60.8389 68.4571 60.8389 68.1353C60.8389 67.8136 60.5781 67.5527 60.2564 67.5527C59.9346 67.5527 59.6738 67.8136 59.6738 68.1353C59.6738 68.4571 59.9346 68.7179 60.2564 68.7179Z" stroke="#A1E4FF" stroke-width="0.5" stroke-linecap="round" stroke-linejoin="round"/>
<path d="M256.097 47.0522L237.242 42L234 54.1002L252.855 59.1523L256.097 47.0522Z" stroke="#A1E4FF" stroke-width="0.5" stroke-miterlimit="10"/>
<path d="M237.242 42L244.408 52.3425L255.934 47.128" stroke="#A1E4FF" stroke-width="0.5" stroke-miterlimit="10"/>
<path d="M234 54.0999L242.397 49.7806" stroke="#A1E4FF" stroke-width="0.5" stroke-miterlimit="10"/>
<path d="M252.855 59.1547L247.427 51.1309" stroke="#A1E4FF" stroke-width="0.5" stroke-miterlimit="10"/>
<path d="M25.8136 4.05554L18.3076 7.63859C15.928 8.77448 14.9199 11.6243 16.0557 14.0039L19.6388 21.5099C20.7747 23.8895 23.6245 24.8976 26.0041 23.7617L33.5101 20.1787C35.8897 19.0428 36.8978 16.193 35.762 13.8134L32.1789 6.30738C31.043 3.92783 28.1932 2.91964 25.8136 4.05554Z" fill="#A1E4FF"/>
<path d="M25.9975 14.9382C26.0791 14.4863 26.2128 14.0454 26.3959 13.6242C26.5193 13.3335 26.6189 13.0332 26.6936 12.7263C26.7389 12.5041 26.7097 12.2731 26.6105 12.0691C26.5482 11.9272 26.4514 11.8032 26.3289 11.7082C26.2065 11.6133 26.0622 11.5504 25.9093 11.5254C25.5379 11.475 25.16 11.5437 24.8301 11.7216C24.4719 11.8823 24.1601 12.1307 23.9234 12.4439C23.702 12.7468 23.5533 13.0965 23.4887 13.4661L21.6018 13.3068C21.6977 12.6248 21.9779 11.982 22.4123 11.4476C22.9167 10.8378 23.5555 10.3532 24.2785 10.0316C25.0541 9.61545 25.9391 9.44833 26.813 9.55302C27.1686 9.60589 27.505 9.74788 27.791 9.96578C28.0769 10.1837 28.303 10.4704 28.4483 10.7992C28.5989 11.0977 28.6847 11.4247 28.7002 11.7587C28.7147 12.0387 28.6828 12.3193 28.6058 12.5889C28.5299 12.8411 28.4214 13.1383 28.2784 13.4863C28.1352 13.8062 28.0229 14.1392 27.9432 14.4805C27.8927 14.7398 27.931 15.0085 28.0521 15.2432L26.2096 16.1228C26.018 15.7594 25.9438 15.3455 25.9975 14.9382ZM27.6084 18.8167C27.4501 18.7676 27.3042 18.6851 27.1805 18.5749C27.0568 18.4646 26.9581 18.3292 26.8911 18.1776C26.8188 18.0343 26.7781 17.8771 26.7718 17.7167C26.7655 17.5563 26.7937 17.3964 26.8546 17.2479C26.9927 16.9349 27.2384 16.6818 27.5471 16.5345C27.8558 16.3871 28.2071 16.3552 28.5373 16.4446C28.6905 16.4914 28.8319 16.5705 28.952 16.6766C29.072 16.7827 29.1679 16.9133 29.2332 17.0596C29.309 17.207 29.3522 17.3689 29.3601 17.5344C29.368 17.7 29.3404 17.8653 29.2791 18.0192C29.1503 18.3366 28.9075 18.5943 28.5984 18.7419C28.2893 18.8894 27.9362 18.9161 27.6084 18.8167Z" fill="#FAFAFA"/>
<path d="M290.369 83.4822L282.351 81.2711C279.809 80.5702 277.18 82.0626 276.479 84.6045L274.268 92.6225C273.567 95.1644 275.059 97.7933 277.601 98.4942L285.619 100.705C288.161 101.406 290.79 99.9139 291.491 97.372L293.702 89.3539C294.403 86.812 292.911 84.1832 290.369 83.4822Z" fill="#A1E4FF"/>
<path d="M285.323 86.1343C284.812 85.9932 284.277 85.9543 283.751 86.0199C283.224 86.0855 282.715 86.2543 282.254 86.5166C281.792 86.7789 281.387 87.1296 281.061 87.5486C280.735 87.9676 280.495 88.4467 280.355 88.9586C279.766 91.0933 280.081 96.7483 282.233 97.3417C284.385 97.9351 287.55 93.2536 288.142 91.1061C288.284 90.5945 288.323 90.0601 288.258 89.5333C288.193 89.0065 288.025 88.4977 287.763 88.0359C287.502 87.5742 287.151 87.1686 286.733 86.8423C286.314 86.516 285.835 86.2754 285.323 86.1343ZM283.925 91.2064C283.693 91.1424 283.485 91.0109 283.327 90.8287C283.17 90.6464 283.07 90.4216 283.04 90.1825C283.01 89.9435 283.052 89.701 283.16 89.4857C283.268 89.2705 283.438 89.0921 283.647 88.9732C283.857 88.8542 284.097 88.8001 284.337 88.8176C284.577 88.8351 284.807 88.9235 284.997 89.0715C285.187 89.2195 285.329 89.4206 285.405 89.6492C285.48 89.8779 285.487 90.1239 285.423 90.3561C285.333 90.6633 285.126 90.9229 284.847 91.0788C284.567 91.2347 284.238 91.2745 283.929 91.1894L283.925 91.2064Z" fill="#FAFAFA"/>
<path d="M85.8692 19.5488C85.901 19.3436 85.9173 19.1364 85.918 18.9288C85.9177 18.7211 85.9014 18.5139 85.8692 18.3087L85.2448 18.229C85.1974 18.0021 85.1261 17.781 85.0322 17.5691L85.4751 17.1262C85.2855 16.755 85.039 16.4157 84.7443 16.1209L84.1907 16.422C84.0187 16.268 83.8318 16.1315 83.6327 16.0146L83.7478 15.399C83.3781 15.2088 82.9804 15.0787 82.5697 15.0137L82.304 15.5806C82.1889 15.5806 82.0737 15.5806 81.9586 15.5806C81.8434 15.5806 81.7238 15.5806 81.6087 15.5806L81.343 15.0137C80.9323 15.0787 80.5346 15.2088 80.1649 15.399L80.28 16.0146C80.0809 16.1315 79.894 16.268 79.722 16.422L79.1684 16.1209C78.8737 16.4157 78.6272 16.755 78.4376 17.1262L78.8805 17.5691C78.7866 17.781 78.7153 18.0021 78.6679 18.229L78.0479 18.3087C78.0135 18.5136 77.9972 18.7211 77.9992 18.9288C77.9976 19.1365 78.0139 19.3439 78.0479 19.5488L78.6679 19.6285C78.7153 19.8539 78.7866 20.0737 78.8805 20.284L78.4376 20.7269C78.6275 21.0966 78.8741 21.4343 79.1684 21.7278L79.722 21.4266C79.8917 21.5834 80.079 21.7202 80.28 21.8341L80.1649 22.4497C80.5346 22.6399 80.9323 22.7699 81.343 22.835L81.6087 22.2681C81.8399 22.2917 82.0728 22.2917 82.304 22.2681L82.5697 22.835C82.9804 22.7699 83.3781 22.6399 83.7478 22.4497L83.6327 21.8341C83.8337 21.7202 84.021 21.5834 84.1907 21.4266L84.7443 21.7278C85.0386 21.4343 85.2852 21.0966 85.4751 20.7269L85.0322 20.284C85.1261 20.0737 85.1974 19.8539 85.2448 19.6285L85.8692 19.5488ZM81.9719 20.3061C81.6994 20.3061 81.4331 20.2254 81.2066 20.074C80.9801 19.9227 80.8036 19.7075 80.6993 19.4559C80.5951 19.2042 80.5678 18.9272 80.6209 18.6601C80.6741 18.3929 80.8053 18.1475 80.9979 17.9548C81.1905 17.7622 81.436 17.631 81.7031 17.5779C81.9703 17.5247 82.2473 17.552 82.499 17.6562C82.7506 17.7605 82.9657 17.937 83.1171 18.1635C83.2684 18.3901 83.3492 18.6563 83.3492 18.9288C83.3481 19.2914 83.2044 19.6391 82.9492 19.8968C82.694 20.1545 82.3478 20.3015 81.9851 20.3061H81.9719Z" fill="#A1E4FF"/>
<path d="M45.8692 129.57C45.901 129.365 45.9173 129.158 45.918 128.95C45.9177 128.743 45.9014 128.535 45.8692 128.33L45.2448 128.25C45.1974 128.024 45.1261 127.802 45.0322 127.591L45.4751 127.148C45.2855 126.776 45.039 126.437 44.7443 126.142L44.1907 126.444C44.0187 126.289 43.8318 126.153 43.6327 126.036L43.7478 125.42C43.3781 125.23 42.9804 125.1 42.5697 125.035L42.304 125.602C42.1889 125.602 42.0737 125.602 41.9586 125.602C41.8434 125.602 41.7238 125.602 41.6087 125.602L41.343 125.035C40.9323 125.1 40.5346 125.23 40.1649 125.42L40.28 126.036C40.0809 126.153 39.894 126.289 39.722 126.444L39.1684 126.142C38.8737 126.437 38.6272 126.776 38.4376 127.148L38.8805 127.591C38.7866 127.802 38.7153 128.024 38.6679 128.25L38.0479 128.33C38.0135 128.535 37.9972 128.743 37.9992 128.95C37.9976 129.158 38.0139 129.365 38.0479 129.57L38.6679 129.65C38.7153 129.875 38.7866 130.095 38.8805 130.305L38.4376 130.748C38.6275 131.118 38.8741 131.456 39.1684 131.749L39.722 131.448C39.8917 131.605 40.079 131.742 40.28 131.856L40.1649 132.471C40.5346 132.661 40.9323 132.791 41.343 132.856L41.6087 132.29C41.8399 132.313 42.0728 132.313 42.304 132.29L42.5697 132.856C42.9804 132.791 43.3781 132.661 43.7478 132.471L43.6327 131.856C43.8337 131.742 44.021 131.605 44.1907 131.448L44.7443 131.749C45.0386 131.456 45.2852 131.118 45.4751 130.748L45.0322 130.305C45.1261 130.095 45.1974 129.875 45.2448 129.65L45.8692 129.57ZM41.9719 130.328C41.6994 130.328 41.4331 130.247 41.2066 130.095C40.9801 129.944 40.8036 129.729 40.6993 129.477C40.5951 129.226 40.5678 128.949 40.6209 128.682C40.6741 128.414 40.8053 128.169 40.9979 127.976C41.1905 127.784 41.436 127.652 41.7031 127.599C41.9703 127.546 42.2473 127.573 42.499 127.678C42.7506 127.782 42.9657 127.959 43.1171 128.185C43.2684 128.412 43.3492 128.678 43.3492 128.95C43.3481 129.313 43.2044 129.661 42.9492 129.918C42.694 130.176 42.3478 130.323 41.9851 130.328H41.9719Z" fill="#A1E4FF"/>
<path d="M265.869 149.57C265.901 149.365 265.917 149.158 265.918 148.95C265.918 148.743 265.901 148.535 265.869 148.33L265.245 148.25C265.197 148.024 265.126 147.802 265.032 147.591L265.475 147.148C265.286 146.776 265.039 146.437 264.744 146.142L264.191 146.444C264.019 146.289 263.832 146.153 263.633 146.036L263.748 145.42C263.378 145.23 262.98 145.1 262.57 145.035L262.304 145.602C262.189 145.602 262.074 145.602 261.959 145.602C261.843 145.602 261.724 145.602 261.609 145.602L261.343 145.035C260.932 145.1 260.535 145.23 260.165 145.42L260.28 146.036C260.081 146.153 259.894 146.289 259.722 146.444L259.168 146.142C258.874 146.437 258.627 146.776 258.438 147.148L258.881 147.591C258.787 147.802 258.715 148.024 258.668 148.25L258.048 148.33C258.014 148.535 257.997 148.743 257.999 148.95C257.998 149.158 258.014 149.365 258.048 149.57L258.668 149.65C258.715 149.875 258.787 150.095 258.881 150.305L258.438 150.748C258.628 151.118 258.874 151.456 259.168 151.749L259.722 151.448C259.892 151.605 260.079 151.742 260.28 151.856L260.165 152.471C260.535 152.661 260.932 152.791 261.343 152.856L261.609 152.29C261.84 152.313 262.073 152.313 262.304 152.29L262.57 152.856C262.98 152.791 263.378 152.661 263.748 152.471L263.633 151.856C263.834 151.742 264.021 151.605 264.191 151.448L264.744 151.749C265.039 151.456 265.285 151.118 265.475 150.748L265.032 150.305C265.126 150.095 265.197 149.875 265.245 149.65L265.869 149.57ZM261.972 150.328C261.699 150.328 261.433 150.247 261.207 150.095C260.98 149.944 260.804 149.729 260.699 149.477C260.595 149.226 260.568 148.949 260.621 148.682C260.674 148.414 260.805 148.169 260.998 147.976C261.191 147.784 261.436 147.652 261.703 147.599C261.97 147.546 262.247 147.573 262.499 147.678C262.751 147.782 262.966 147.959 263.117 148.185C263.268 148.412 263.349 148.678 263.349 148.95C263.348 149.313 263.204 149.661 262.949 149.918C262.694 150.176 262.348 150.323 261.985 150.328H261.972Z" fill="#A1E4FF"/>
</svg>
