<svg width="1920" height="849" viewBox="0 0 1920 849" fill="none" xmlns="http://www.w3.org/2000/svg">
<path d="M1547.78 279.53C1564.93 276.86 1564.57 240.268 1534.3 229.605C1504.03 218.942 1519.64 195.2 1534.65 200.445C1549.66 205.69 1549.91 240.735 1572.51 243.857C1595.12 246.98 1599.88 201.713 1587.46 187.14C1575.03 172.567 1600.39 178.586 1603.45 174.208C1608.34 167.135 1592.08 133.185 1609.82 136.188C1618.61 137.669 1609.4 159.515 1615.97 191.984C1622.54 224.453 1630.41 240.615 1645.29 223.346C1660.16 206.077 1643.78 192.531 1654.69 184.324C1665.59 176.117 1674.39 183.59 1673.35 193.906C1672.31 204.222 1671.85 214.364 1679.08 210.668C1686.3 206.971 1698.19 189.702 1704.1 176.13C1710 162.558 1716.72 163.425 1717.27 173.541C1717.81 183.657 1690.94 205.677 1690.25 220.743C1689.55 235.81 1700.03 263.101 1723.84 244.952C1747.64 226.802 1753.16 220.196 1761.4 229.898C1769.63 239.6 1763.52 255.481 1776.99 255.254C1790.47 255.028 1807.26 219.129 1815.74 221.891C1824.22 224.654 1840.22 232.461 1811.09 248.582C1781.95 264.703 1772.07 264.009 1773.37 281.598C1774.66 299.187 1842.9 301.282 1836.01 312.946C1829.12 324.61 1752.76 323.209 1744.79 351.941C1736.82 380.674 1778.11 376.283 1770.89 392.364C1763.66 408.445 1746.9 385.478 1731.74 371.906C1716.59 358.334 1716.27 368.489 1702.94 372.773C1689.61 377.057 1686.69 369.45 1678.13 367.288C1669.57 365.126 1674.8 382.702 1661.92 380.834C1649.05 378.965 1657.93 376.323 1649.21 372.973C1640.49 369.624 1632.96 402.907 1614.22 397.716C1595.48 392.524 1584.08 377.364 1572.35 388.067C1560.63 398.77 1569.2 421.497 1552.47 419.922C1535.74 418.347 1541.67 402.733 1548.75 400.918C1555.83 399.103 1574.94 373.427 1571.63 363.552C1568.33 353.676 1536.46 379.98 1529.66 366.461C1522.86 352.942 1516.97 341.345 1500.66 345.415C1484.34 349.486 1481.85 326.732 1494.62 327.079C1507.39 327.426 1537.02 329.655 1539.34 318.952C1541.66 308.249 1534.09 296.265 1513.93 286.162C1493.78 276.06 1513.56 255.628 1527.73 266.918C1541.9 278.208 1534.21 281.585 1547.78 279.53Z" fill="#C6EFFF"/>
<path d="M-32 462C-32 462 173 537 343 469.5C513 402 726 243.476 876 316.475C1173.05 461.039 1284.56 975.838 1567 804.475C1643.02 758.351 1673.5 648.806 1786.5 601.975C1899.5 555.144 2000 601.975 2000 601.975" stroke="#8CDEFF" stroke-width="20"/>
<path d="M111.355 396.355C111.355 396.355 109.797 458.072 109.797 458.119C109.797 469.524 110.062 479.527 110.669 484.684C110.662 484.715 110.662 484.747 110.669 484.778C110.681 486.002 110.974 487.207 111.526 488.299C114.923 490.59 206.103 492.974 209.313 491.976C212.523 490.979 209.967 481.755 206.493 478.842C203.018 475.928 168.506 459.412 168.506 459.412L169.581 397.82L111.355 396.355Z" fill="#FFB09F"/>
<path d="M109.688 445.871C109.688 445.871 109.797 458.071 109.797 458.118C109.797 469.523 110.061 479.526 110.669 484.684C110.662 484.714 110.662 484.746 110.669 484.777C110.815 485.98 111.103 487.162 111.526 488.298C114.923 490.589 206.103 492.973 209.313 491.975C212.522 490.978 209.967 481.754 206.493 478.841C203.018 475.927 168.506 459.411 168.506 459.411V446.946L109.688 445.871Z" fill="white"/>
<path d="M174.178 459.506C168.102 458.509 160.732 459.6 156.198 464.009C156.026 464.18 156.198 464.414 156.463 464.352C162.204 462.36 168.144 460.991 174.178 460.27C174.266 460.252 174.345 460.204 174.402 460.134C174.459 460.065 174.49 459.978 174.49 459.888C174.49 459.798 174.459 459.711 174.402 459.641C174.345 459.572 174.266 459.524 174.178 459.506Z" fill="#263238"/>
<path d="M178.604 462.043C172.527 461.046 165.158 462.137 160.624 466.531C160.452 466.702 160.624 466.951 160.888 466.889C166.625 464.899 172.559 463.53 178.588 462.807C178.677 462.791 178.757 462.745 178.816 462.676C178.874 462.608 178.907 462.521 178.909 462.431C178.91 462.342 178.881 462.254 178.826 462.183C178.77 462.112 178.692 462.063 178.604 462.043Z" fill="#263238"/>
<path d="M183.029 464.584C176.952 463.587 169.567 464.584 165.048 469.071C164.861 469.243 165.048 469.492 165.313 469.43C171.05 467.439 176.984 466.071 183.013 465.347C183.102 465.331 183.182 465.285 183.24 465.217C183.299 465.148 183.332 465.062 183.333 464.972C183.335 464.882 183.306 464.794 183.25 464.724C183.195 464.653 183.117 464.603 183.029 464.584Z" fill="#263238"/>
<path d="M209.391 492.036C206.181 493.017 115.017 490.649 111.604 488.359C110.295 487.502 109.859 474.211 109.797 458.116C109.797 457.944 109.797 457.773 109.797 457.602L168.631 458.474V459.471C168.631 459.471 203.112 475.987 206.602 478.916C210.092 481.846 212.616 491.054 209.391 492.036Z" fill="#37474F"/>
<path d="M109.797 457.602V458.116C109.797 474.211 110.28 487.517 111.604 488.359C112.929 489.2 132.904 490.462 154.218 491.303C179.771 492.207 207.599 492.659 209.36 492.114C212.57 491.132 209.983 481.892 206.524 478.979C203.065 476.065 168.553 459.549 168.553 459.549V458.568L148.936 458.272L109.797 457.602Z" fill="#B76212"/>
<path d="M208.455 488.47C193.092 487.691 131.08 486.008 115.842 486.414C115.717 486.414 115.701 486.507 115.842 486.507C131.049 487.613 193.092 488.797 208.471 488.72C208.751 488.72 208.751 488.486 208.455 488.47Z" fill="#263238"/>
<path opacity="0.1" d="M149.031 458.195C150.465 468.043 152.662 482.564 154.22 491.305C179.773 492.209 207.6 492.661 209.361 492.115C212.571 491.134 209.984 481.894 206.525 478.98C203.066 476.067 168.554 459.551 168.554 459.551V458.569L149.031 458.195Z" fill="black"/>
<path d="M104.5 458.447L170.47 459.086C170.47 459.086 174.225 351.654 174.506 315.834C174.833 274.902 172.511 152.232 172.511 152.232H123.182C123.182 152.232 109.938 179.281 117.51 209.727L119.598 319.246L104.5 458.447Z" fill="#37474F"/>
<path d="M109.392 446.899C111.134 446.665 112.887 446.525 114.643 446.479C116.591 446.339 118.538 446.198 120.486 446.105C124.241 445.949 127.996 445.887 131.751 445.871C139.323 445.871 146.911 445.871 154.484 446.136C158.784 446.276 163.1 446.448 167.401 446.697C167.572 446.697 167.556 446.962 167.401 446.962C159.89 447.242 152.38 447.351 144.87 447.492C137.36 447.632 129.835 447.788 122.34 447.647C120.19 447.647 118.04 447.647 115.89 447.46C113.739 447.273 111.527 447.46 109.423 447.149C109.283 447.133 109.236 446.931 109.392 446.899Z" fill="#263238"/>
<path d="M165.717 387.598C166.496 369.836 167.057 352.058 167.54 334.296C168.527 298.74 168.787 263.178 168.319 227.612C168.07 207.668 167.525 187.725 166.933 167.781C166.933 167.547 167.275 167.563 167.291 167.781C169.176 203.477 169.893 239.251 169.94 274.994C169.987 310.737 169.239 346.122 167.478 381.646C166.496 401.575 165.281 421.534 163.396 441.4C163.386 441.427 163.368 441.451 163.345 441.468C163.321 441.485 163.292 441.494 163.263 441.494C163.234 441.494 163.206 441.485 163.182 441.468C163.158 441.451 163.14 441.427 163.131 441.4C163.941 423.466 164.954 405.61 165.717 387.598Z" fill="#263238"/>
<path d="M181.938 406.154C181.938 406.154 182.452 465.814 182.452 465.845C182.452 477.266 182.717 487.269 183.324 492.427C183.332 493.649 183.619 494.854 184.166 495.948V496.026C187.562 498.316 278.743 500.7 281.952 499.687C285.162 498.675 282.591 489.482 279.132 486.568C275.673 483.654 241.146 467.139 241.146 467.139L240.07 407.51L181.938 406.154Z" fill="#FFB09F"/>
<path d="M182.344 453.6C182.344 453.6 182.453 465.815 182.453 465.846C182.453 477.267 182.718 487.27 183.325 492.428C183.468 493.63 183.75 494.812 184.167 495.949V496.027C187.563 498.317 278.744 500.701 281.953 499.688C285.163 498.676 282.592 489.483 279.133 486.569C275.674 483.655 241.147 467.14 241.147 467.14V454.675L182.344 453.6Z" fill="white"/>
<path d="M246.833 467.25C240.757 466.253 233.371 467.328 228.853 471.738C228.666 471.909 228.853 472.158 229.118 472.096C234.855 470.106 240.789 468.737 246.818 468.014C246.906 467.998 246.987 467.952 247.045 467.883C247.103 467.815 247.136 467.728 247.138 467.638C247.14 467.548 247.111 467.461 247.055 467.39C247 467.319 246.921 467.27 246.833 467.25Z" fill="#263238"/>
<path d="M251.241 469.787C245.18 468.79 237.794 469.865 233.26 474.275C233.089 474.446 233.26 474.695 233.525 474.633C239.268 472.645 245.207 471.276 251.241 470.551C251.329 470.533 251.408 470.485 251.465 470.416C251.522 470.346 251.553 470.259 251.553 470.169C251.553 470.079 251.522 469.992 251.465 469.923C251.408 469.853 251.329 469.805 251.241 469.787Z" fill="#263238"/>
<path d="M255.667 472.329C249.606 471.316 242.22 472.407 237.686 476.816C237.515 476.988 237.764 477.237 237.951 477.175C243.694 475.186 249.633 473.818 255.667 473.092C255.755 473.074 255.834 473.027 255.891 472.957C255.948 472.887 255.979 472.8 255.979 472.711C255.979 472.621 255.948 472.534 255.891 472.464C255.834 472.394 255.755 472.347 255.667 472.329Z" fill="#263238"/>
<path d="M281.985 499.766C278.775 500.763 187.595 498.395 184.182 496.105C182.874 495.248 182.453 481.942 182.391 465.862V465.348L241.225 466.22V467.217C241.225 467.217 275.752 483.733 279.227 486.631C282.701 489.529 285.257 498.8 281.985 499.766Z" fill="#B76212"/>
<path d="M281.11 496.214C265.747 495.435 203.718 493.753 188.48 494.158C188.356 494.158 188.356 494.236 188.48 494.251C203.687 495.358 265.716 496.526 281.094 496.464C281.421 496.464 281.437 496.23 281.11 496.214Z" fill="#263238"/>
<path d="M151.802 215.302C151.802 215.302 178.867 300.624 179.35 316.299C179.77 329.667 178.057 466.843 178.057 466.843L246.613 467.248C246.613 467.248 240.817 327.361 239.758 313.432C237.748 287.38 214.937 215.863 198.608 152.152H124.707C124.707 152.152 125.346 185.527 140.522 209.646C140.522 209.646 147.393 212.825 151.802 215.302Z" fill="#37474F"/>
<path d="M181.703 454.207C189.618 453.974 197.83 453.74 205.745 453.942C213.66 454.145 221.466 454.254 229.303 454.722C233.76 454.986 238.2 455.142 242.641 455.579C242.665 455.587 242.685 455.603 242.7 455.624C242.714 455.645 242.722 455.67 242.722 455.695C242.722 455.721 242.714 455.746 242.7 455.767C242.685 455.787 242.665 455.803 242.641 455.812C234.741 456.28 226.795 456.186 218.864 456.108C210.933 456.03 203.158 455.952 195.306 455.594C190.849 455.392 186.409 455.173 181.968 454.862C181.47 454.831 181.22 454.223 181.703 454.207Z" fill="#263238"/>
<path d="M196.691 192.352C199.122 200.501 201.194 208.775 203.376 217.002C205.557 225.229 207.769 233.58 209.951 241.931C214.173 257.98 218.349 274.044 221.528 290.342C224.756 306.698 226.586 323.3 226.996 339.967C227.37 356.951 226.996 373.965 226.887 390.949C226.778 407.932 226.638 425.118 226.342 442.195C226.342 444.314 226.249 446.433 226.171 448.567C226.171 448.77 225.859 448.754 225.859 448.567C225.407 431.584 225.641 414.554 225.703 397.571C225.766 380.587 225.984 363.573 225.843 346.589C225.771 329.717 224.312 312.88 221.481 296.247C218.614 279.902 214.594 263.792 210.418 247.728C208.034 238.566 205.619 229.42 203.251 220.258C200.883 211.096 198.296 201.826 196.193 192.539C196.168 192.473 196.17 192.4 196.2 192.336C196.229 192.271 196.282 192.221 196.349 192.197C196.415 192.172 196.488 192.174 196.552 192.204C196.616 192.233 196.667 192.286 196.691 192.352Z" fill="#263238"/>
<path d="M168.74 216.955C165.329 216.929 161.926 216.622 158.565 216.036C155.232 215.293 151.94 214.378 148.702 213.293C145.519 212.57 142.292 212.049 139.042 211.735C135.764 211.261 132.573 210.311 129.569 208.915C129.429 208.837 129.304 209.055 129.444 209.118C132.357 210.683 135.395 212.002 138.528 213.06C141.784 214.088 145.181 214.228 148.469 215.038C151.797 216.027 155.185 216.803 158.612 217.36C161.994 217.787 165.42 217.729 168.786 217.189C168.911 217.157 168.864 216.955 168.74 216.955Z" fill="#263238"/>
<path d="M173.072 284.825C172.417 282.285 171.81 279.761 171.124 277.237C169.737 272.142 168.319 267.047 166.792 261.999C163.676 251.965 160.84 241.868 157.6 231.896C155.777 226.225 154.125 220.491 151.975 214.944C151.965 214.915 151.943 214.891 151.915 214.878C151.888 214.865 151.856 214.864 151.827 214.874C151.798 214.884 151.774 214.906 151.761 214.933C151.748 214.961 151.746 214.993 151.757 215.022C152.832 220.195 154.374 225.259 155.746 230.354C157.117 235.449 158.581 240.528 160.046 245.608C162.975 255.673 165.826 265.769 169.021 275.773C169.924 278.577 170.844 281.366 171.81 284.155C172.776 286.944 173.57 289.92 174.754 292.678C174.754 292.711 174.768 292.743 174.791 292.766C174.814 292.789 174.846 292.803 174.879 292.803C174.912 292.803 174.944 292.789 174.967 292.766C174.991 292.743 175.004 292.711 175.004 292.678C174.474 289.982 173.726 287.412 173.072 284.825Z" fill="#263238"/>
<path d="M179.04 76.4113C193.81 98.2247 216.06 127.735 223.648 123.419C243.062 112.388 265.437 79.2159 269.379 70.8644C271.669 66.0187 239.946 42.1174 236.814 46.9319C233.153 52.5567 217.852 82.3476 215.328 83.0488C213.411 83.5785 194.917 67.9196 188.84 64.6787C173.726 56.6857 172.184 66.3147 179.04 76.4113Z" fill="#FFB09F"/>
<path d="M230.879 54.3203L268.725 78.58C268.725 78.58 235.849 124.201 221.437 124.264C213.023 124.264 188.95 96.2178 178.48 78.097C167.059 58.2623 180.459 57.9975 191.35 65.4608C200.013 71.3972 214.098 82.226 214.721 81.6807C215.345 81.1353 230.879 54.3203 230.879 54.3203Z" fill="#FFD02E"/>
<path opacity="0.1" d="M222.994 81.2432C222.391 82.4882 221.982 83.8173 221.778 85.1852C222.666 84.1245 223.4 82.9444 223.96 81.6794C224.548 80.428 224.963 79.1016 225.19 77.7374C224.298 78.7976 223.558 79.9777 222.994 81.2432ZM213.053 119.946L213.879 120.57C214.312 119.574 214.615 118.527 214.782 117.454C214.111 118.215 213.531 119.051 213.053 119.946ZM238.528 72.5178C237.283 71.9291 235.961 71.5199 234.601 71.3024C236.741 73.0619 239.303 74.2326 242.034 74.6991C240.969 73.8168 239.79 73.083 238.528 72.5178ZM207.101 98.9121C205.861 98.307 204.538 97.8921 203.174 97.6812C204.223 98.5815 205.399 99.3218 206.665 99.8781C207.915 100.467 209.242 100.876 210.607 101.093C209.552 100.197 208.371 99.4622 207.101 98.9121ZM180.364 67.2202C179.904 65.919 179.258 64.6911 178.447 63.5742C178.559 64.9463 178.869 66.295 179.367 67.5786C179.827 68.8846 180.472 70.1178 181.283 71.2401C181.171 69.863 180.861 68.5091 180.364 67.2202ZM257.755 84.1412C257.289 82.8379 256.644 81.6056 255.838 80.4797C255.949 81.8571 256.258 83.2112 256.758 84.4996C257.224 85.8029 257.869 87.0352 258.674 88.1611C258.564 86.7837 258.254 85.4296 257.755 84.1412ZM228.836 108.011C228.367 106.71 227.722 105.478 226.92 104.35C227.179 107.114 228.157 109.762 229.756 112.031C229.644 110.654 229.334 109.3 228.836 108.011ZM241.847 93.9105C240.543 94.3769 239.311 95.0218 238.185 95.827C240.952 95.5798 243.603 94.6011 245.867 92.9913C244.485 93.1282 243.132 93.464 241.847 93.9885V93.9105ZM198.22 79.4981C196.923 79.9679 195.696 80.6126 194.574 81.4145C197.34 81.1673 199.991 80.1886 202.255 78.5788C200.856 78.6963 199.48 79.0165 198.173 79.5292L198.22 79.4981Z" fill="black"/>
<path d="M244.588 74.3697C241.861 72.5779 239.072 70.8796 236.299 69.1656C234.975 68.3398 233.65 67.4985 232.279 66.7194C230.908 65.9404 229.381 64.912 227.87 64.1797C227.761 64.1797 227.683 64.1797 227.776 64.3199C229.054 65.4106 230.534 66.3143 231.905 67.2959C233.276 68.2775 234.476 69.0877 235.769 69.9603C238.465 71.7988 241.176 73.6218 243.918 75.3825C249.403 78.9194 254.981 82.3005 260.621 85.6036C260.647 85.6101 260.674 85.6083 260.698 85.5983C260.723 85.5883 260.744 85.5707 260.758 85.5481C260.772 85.5255 260.778 85.4991 260.776 85.4726C260.774 85.4462 260.763 85.4211 260.746 85.4011C255.495 81.6149 250.135 77.9222 244.588 74.3697Z" fill="#263238"/>
<path opacity="0.1" d="M247.705 104.57C238.356 114.837 228.026 124.233 221.498 124.264C213.084 124.264 189.011 96.2181 178.541 78.0973C172.604 67.7983 173.368 62.7812 176.983 61.3633L247.705 104.57Z" fill="black"/>
<path d="M359.531 115.8C359.531 115.8 317.462 93.9867 274.895 69.5712C232.327 45.1557 130.458 11.4071 127.217 13.9001C123.977 16.393 219.146 70.8177 263.598 89.7019C308.051 108.586 354.405 124.837 354.405 124.837L359.531 115.8Z" fill="#30A6DF"/>
<path d="M360.701 115.817L332.39 99.4883L325.207 115.708L355.434 126.646L360.701 115.817Z" fill="#DBDBDB"/>
<path d="M360.7 115.803C367.431 115.164 375.097 116.317 382.685 124.076C391.847 133.425 400.416 132.802 400.416 132.802C400.416 132.802 372.651 147.37 355.434 126.569L360.7 115.803Z" fill="#263238"/>
<path d="M401.661 132.94C400.29 131.677 392.312 132.238 386.983 127.533C381.966 123.123 369.533 138.72 378.772 138.969C389.274 139.172 404.154 135.168 401.661 132.94Z" fill="#8CDEFF"/>
<path d="M192.908 76.1939C187.922 76.2874 180.443 66.4246 178.48 59.8338C178.355 59.3819 179.898 55.2686 181.596 50.1735C182.578 47.0573 183.606 43.6139 184.307 40.373L203.503 49.7217C201.466 53.5117 199.896 57.5351 198.829 61.7035C198.737 62.1496 198.69 62.6037 198.688 63.0591C198.68 63.1315 198.68 63.2047 198.688 63.2772C198.486 65.9416 197.738 76.1004 192.908 76.1939Z" fill="#FFB09F"/>
<path d="M198.64 63.0598C198.63 63.1375 198.63 63.216 198.64 63.2936C197.924 63.2349 197.215 63.115 196.521 62.9352C184.695 59.819 184.477 45.796 184.819 40.6543L203.517 49.7225C201.476 53.5112 199.907 57.535 198.842 61.7043C198.738 62.1498 198.67 62.6032 198.64 63.0598Z" fill="#263238"/>
<path d="M184.01 15.9437C180.692 22.8928 181.393 44.4882 185.864 49.9415C192.362 57.8567 204.562 60.3497 211.667 52.1852C218.569 44.2856 217.151 16.1618 212.009 11.0356C204.437 3.49439 188.887 5.69133 184.01 15.9437Z" fill="#FFB09F"/>
<path d="M203.41 31.8203C203.41 31.8203 203.285 31.8982 203.285 31.9449C203.363 33.4096 203.192 35.0612 201.883 35.5909C203.503 35.4195 203.706 33.2226 203.41 31.8203Z" fill="#263238"/>
<path d="M202.084 30.3221C199.731 30.1663 199.622 34.8718 201.788 34.9965C203.954 35.1211 204.079 30.4312 202.084 30.3221Z" fill="#263238"/>
<path d="M211.573 32.0078C211.573 32.0078 211.683 32.0078 211.683 32.1325C211.683 33.5815 211.683 35.2487 213.054 35.7784C213.054 35.7784 213.054 35.8719 213.054 35.8563C211.433 35.5915 211.262 33.3634 211.573 32.0078Z" fill="#263238"/>
<path d="M212.914 30.5136C215.251 30.4045 215.313 35.0944 213.147 35.1879C210.982 35.2814 210.95 30.6227 212.914 30.5136Z" fill="#263238"/>
<path d="M200.277 28.1273C200.9 27.9628 201.513 27.7652 202.115 27.5352C202.793 27.4163 203.412 27.0767 203.876 26.5692C203.988 26.379 204.035 26.1574 204.01 25.938C203.985 25.7186 203.888 25.5134 203.736 25.3539C203.387 25.0872 202.974 24.9179 202.539 24.8631C202.104 24.8084 201.662 24.8702 201.258 25.0422C200.384 25.2826 199.629 25.8375 199.139 26.6003C199.048 26.7767 199.009 26.9751 199.025 27.1728C199.041 27.3706 199.113 27.5598 199.231 27.719C199.35 27.8781 199.511 28.0007 199.696 28.0729C199.88 28.1451 200.082 28.1639 200.277 28.1273Z" fill="#263238"/>
<path d="M214.782 28.1917C214.153 28.0554 213.534 27.8784 212.928 27.6619C212.247 27.5665 211.618 27.2488 211.136 26.7582C211.016 26.5762 210.961 26.3595 210.978 26.1423C210.995 25.9251 211.083 25.7197 211.23 25.5585C211.567 25.2778 211.973 25.0922 212.406 25.0209C212.838 24.9497 213.282 24.9955 213.692 25.1534C214.572 25.3414 215.351 25.8529 215.873 26.5868C215.982 26.7611 216.038 26.9635 216.035 27.1693C216.031 27.375 215.967 27.5753 215.852 27.7455C215.736 27.9157 215.573 28.0485 215.383 28.1277C215.193 28.207 214.985 28.2292 214.782 28.1917Z" fill="#263238"/>
<path d="M203.173 40.6868C203.529 41.2689 204 41.7722 204.558 42.1661C205.115 42.5599 205.747 42.8359 206.414 42.9772C207.003 43.0972 207.606 43.1391 208.206 43.1019H208.549H208.86C208.938 43.0915 209.009 43.0549 209.063 42.9982C209.117 42.9416 209.15 42.8682 209.156 42.7902V42.5721V42.4475C209.156 41.3256 209.156 39.6117 209.156 39.6117C209.562 39.8299 211.634 40.827 211.603 40.235C211.604 35.1827 211.082 30.1438 210.045 25.1992C210.045 25.0434 209.764 25.0746 209.78 25.1992C209.78 29.8736 210.559 34.5479 210.605 39.2222C209.872 38.8585 209.09 38.6014 208.284 38.4587C208.128 38.4587 208.471 41.7619 208.409 42.2605C207.49 42.3298 206.567 42.2138 205.695 41.9193C204.822 41.6249 204.018 41.1581 203.329 40.5466C203.204 40.4687 203.08 40.5621 203.173 40.6868Z" fill="#263238"/>
<path d="M207.554 42.5707C206.922 43.357 206.094 43.964 205.155 44.3314C204.648 44.4936 204.103 44.4936 203.597 44.3314C202.444 44.0042 202.444 42.9291 202.677 42.0254C202.805 41.5415 202.994 41.0756 203.238 40.6387C204.433 41.7278 205.946 42.405 207.554 42.5707Z" fill="#263238"/>
<path d="M205.155 44.2689C204.648 44.4311 204.103 44.4311 203.597 44.2689C202.444 43.9417 202.444 42.8666 202.677 41.9629C203.29 42.012 203.867 42.2664 204.317 42.685C204.767 43.1035 205.062 43.6616 205.155 44.2689Z" fill="#FF97B8"/>
<path opacity="0.2" d="M189.152 9.96094C189.152 12.8434 188.778 21.7558 187.469 23.6255C186.16 25.4952 183.402 29.8579 181.938 30.5279C181.938 24.5915 182.592 18.92 184.01 15.9441C185.164 13.5297 186.938 11.4649 189.152 9.96094Z" fill="#263238"/>
<path d="M199.406 0.00361151C197.539 0.0148899 195.705 0.49437 194.072 1.39812C192.439 2.30188 191.058 3.60102 190.057 5.17653C189.214 6.76677 188.939 8.59728 189.278 10.365H189.434C189.349 8.79841 189.686 7.2377 190.409 5.84556C191.133 4.45341 192.217 3.28078 193.547 2.44985C195.007 1.49303 196.668 0.886854 198.4 0.678721C200.133 0.470588 201.89 0.666139 203.535 1.2501C205.145 1.79448 206.506 2.90072 207.368 4.36631C207.368 4.50654 207.757 4.36632 207.679 4.25726C206.495 1.63964 203.099 -0.0898748 199.406 0.00361151Z" fill="#263238"/>
<path d="M223.29 8.9001C222.61 6.86915 221.236 5.14254 219.41 4.02322C216.886 2.46512 214.035 2.69885 211.199 2.99489C211.199 2.99489 211.199 3.11953 211.199 3.10394C213.589 2.6725 216.053 2.94869 218.289 3.89857C220.126 4.82625 221.586 6.36259 222.418 8.2457C223.221 10.1754 223.3 12.33 222.642 14.3136C221.983 16.2973 220.631 17.9767 218.834 19.0434C217.78 19.6307 216.618 19.9971 215.418 20.1204C214.217 20.2436 213.005 20.121 211.854 19.7601C211.854 19.7601 211.698 19.8692 211.854 19.9003C213.408 20.4592 215.088 20.5733 216.704 20.2299C218.32 19.8864 219.808 19.099 221.002 17.9561C222.195 16.8132 223.045 15.3602 223.458 13.7604C223.87 12.1606 223.828 10.4774 223.337 8.9001H223.29Z" fill="#263238"/>
<path d="M182.466 20.1186C182.466 20.1186 178.587 12.7332 181.859 8.47953C183.728 6.08005 189.867 6.40725 189.867 6.40725C191.518 3.97182 194.068 2.29077 196.957 1.73293C202.099 0.579932 208.206 3.60268 208.206 3.60268C208.206 3.60268 213.099 0.82923 217.664 3.46243C224.037 7.12398 223.195 16.8466 216.776 19.9472C212.257 22.113 206.15 18.1086 206.15 18.1086C205.558 18.1086 199.512 21.8013 194.978 16.3947C194.978 16.3947 191.254 19.6823 187.935 17.3608C187.415 18.3241 186.611 19.1047 185.634 19.5978C184.656 20.0909 183.551 20.2726 182.466 20.1186Z" fill="#263238"/>
<path d="M185.942 33.751C185.942 33.751 182.047 26.3188 178.744 27.6121C175.441 28.9053 177.731 39.2667 181.19 41.0741C181.617 41.3382 182.093 41.5132 182.589 41.5887C183.085 41.6643 183.592 41.6386 184.078 41.5135C184.564 41.3883 185.02 41.1662 185.418 40.8604C185.816 40.5546 186.148 40.1715 186.394 39.7341L185.942 33.751Z" fill="#FFB09F"/>
<path d="M179.477 30.5742C179.477 30.5742 179.477 30.5742 179.477 30.6677C180.57 31.3968 181.497 32.348 182.197 33.4595C182.898 34.571 183.357 35.8177 183.543 37.1183C183.426 36.8465 183.252 36.6031 183.032 36.4044C182.813 36.2057 182.553 36.0563 182.271 35.9662C181.989 35.8761 181.691 35.8475 181.397 35.8823C181.104 35.9171 180.82 36.0144 180.567 36.1678C180.547 36.1678 180.527 36.176 180.512 36.1906C180.498 36.2052 180.489 36.2251 180.489 36.2457C180.489 36.2664 180.498 36.2862 180.512 36.3008C180.527 36.3154 180.547 36.3236 180.567 36.3236C181.032 36.2376 181.513 36.2978 181.943 36.4959C182.372 36.694 182.73 37.0202 182.967 37.4299C183.357 38.1208 183.67 38.8523 183.902 39.6112C183.995 39.845 184.416 39.7826 184.369 39.5177C184.852 36.2145 182.92 31.3377 179.477 30.5742Z" fill="#263238"/>
<path d="M112.821 167.422C112.992 167.703 206.307 186.821 207.351 186.026C208.8 184.92 213.771 89.9843 199.125 68.8252C195.51 63.6212 181.534 56.2669 176.376 58.6975C163.008 64.93 153.347 81.5082 147.271 91.075C142.768 98.1488 136.598 110.52 130.755 123.281C121.095 144.315 112.229 166.378 112.821 167.422Z" fill="#FFD02E"/>
<path opacity="0.1" d="M177.683 95.5466C177.081 96.7926 176.666 98.121 176.452 99.4886C177.348 98.4397 178.084 97.2635 178.634 95.9984C179.232 94.7507 179.647 93.4229 179.865 92.0564C178.969 93.1052 178.233 94.2815 177.683 95.5466ZM137.079 115.708C136.49 116.959 136.081 118.286 135.864 119.65C136.76 118.602 137.495 117.425 138.045 116.16C138.641 114.913 139.05 113.585 139.26 112.218C138.375 113.275 137.641 114.45 137.079 115.708ZM185.895 177.332C185.304 178.581 184.894 179.908 184.679 181.274C185.575 180.221 186.315 179.046 186.876 177.783C187.456 176.53 187.864 175.204 188.091 173.841C187.174 174.89 186.413 176.065 185.832 177.332H185.895ZM138.793 172.657V172.829L139.868 173.031C140.442 171.805 140.84 170.504 141.052 169.167C140.104 170.216 139.321 171.403 138.731 172.688L138.793 172.657ZM115.094 162.249C114.505 163.5 114.091 164.827 113.863 166.191C114.77 165.141 115.511 163.959 116.06 162.685C116.657 161.438 117.067 160.11 117.276 158.743C116.369 159.814 115.614 161.004 115.032 162.28L115.094 162.249ZM165.888 143.848C165.3 145.099 164.885 146.426 164.658 147.79C165.564 146.745 166.305 145.568 166.854 144.3C167.448 143.051 167.857 141.723 168.07 140.358C167.184 141.414 166.45 142.589 165.888 143.848ZM159.126 76.4753C158.529 77.7222 158.12 79.0506 157.911 80.4173C158.797 79.3552 159.531 78.1754 160.092 76.9116C160.69 75.6692 161.105 74.3466 161.323 72.9852C160.429 74.0327 159.689 75.2027 159.126 76.4598V76.4753ZM207.194 98.9432C205.954 98.3382 204.631 97.9232 203.267 97.7123C204.316 98.6126 205.492 99.353 206.758 99.9093L207.412 100.174C207.272 99.7379 207.194 99.3327 207.194 98.9432ZM139.432 144.954C138.18 144.365 136.854 143.951 135.49 143.723C136.537 144.633 137.72 145.374 138.996 145.92C140.238 146.518 141.561 146.933 142.922 147.151C141.873 146.251 140.697 145.51 139.432 144.954ZM207.77 181.492C206.523 180.897 205.195 180.487 203.828 180.276C204.885 181.169 206.066 181.904 207.334 182.458L207.895 182.707C207.895 182.364 207.895 182.006 208.004 181.616L207.77 181.492ZM174.333 163.714C173.084 163.123 171.757 162.714 170.391 162.498C171.448 163.391 172.629 164.126 173.897 164.68C175.143 165.282 176.472 165.697 177.839 165.911C176.779 165.018 175.599 164.279 174.333 163.714ZM203.096 138.145C201.853 137.552 200.53 137.143 199.17 136.93C200.222 137.821 201.398 138.555 202.66 139.111C203.909 139.705 205.236 140.119 206.602 140.342C205.544 139.446 204.363 138.707 203.096 138.145ZM167.369 112.577C166.121 111.982 164.793 111.572 163.427 111.361C164.483 112.254 165.664 112.989 166.932 113.543C168.178 114.145 169.507 114.56 170.874 114.774C169.817 113.878 168.636 113.138 167.369 112.577ZM129.522 160.8C129.066 159.497 128.421 158.268 127.606 157.154C127.719 158.531 128.029 159.885 128.525 161.174C128.995 162.471 129.64 163.698 130.442 164.82C130.331 163.443 130.022 162.088 129.522 160.8ZM180.363 67.2202C179.903 65.919 179.258 64.6911 178.447 63.5742C178.559 64.9463 178.868 66.295 179.366 67.5786C179.826 68.8846 180.471 70.1178 181.283 71.2401C181.171 69.863 180.861 68.5091 180.363 67.2202ZM195.243 113.698C194.78 112.399 194.134 111.171 193.327 110.053C193.439 111.43 193.748 112.784 194.246 114.072C194.708 115.376 195.359 116.604 196.178 117.718C196.059 116.341 195.744 114.987 195.243 113.698ZM161.557 175.446C161.093 174.147 160.448 172.919 159.64 171.8C159.754 173.177 160.064 174.531 160.56 175.82C160.778 176.366 160.996 176.911 161.261 177.378L162.211 177.565C162.038 176.846 161.819 176.138 161.557 175.446ZM187.577 149.893C187.107 148.596 186.463 147.37 185.661 146.247C185.774 147.624 186.084 148.978 186.58 150.267C187.046 151.571 187.691 152.803 188.497 153.929C188.385 152.547 188.075 151.188 187.577 149.893ZM153.034 128.89C152.566 127.585 151.915 126.352 151.102 125.228C151.214 126.611 151.524 127.97 152.021 129.264C152.492 130.576 153.148 131.814 153.969 132.941C153.855 131.553 153.54 130.188 153.034 128.89ZM126.063 133.705L125.487 135.013L125.876 134.889C127.178 134.416 128.406 133.76 129.522 132.941C128.339 133.034 127.175 133.291 126.063 133.705ZM152.364 157.637C151.061 158.103 149.828 158.748 148.703 159.554C150.085 159.442 151.444 159.132 152.738 158.634C154.034 158.174 155.257 157.528 156.368 156.718C154.996 156.83 153.648 157.139 152.364 157.637ZM151.554 98.8965C150.279 99.3622 149.078 100.008 147.986 100.813C149.363 100.699 150.716 100.39 152.006 99.8937C153.306 99.4247 154.534 98.7743 155.652 97.9616C154.248 98.0729 152.867 98.3878 151.554 98.8965ZM199.076 165.412C197.773 165.878 196.54 166.523 195.415 167.329C196.792 167.217 198.146 166.907 199.434 166.409C200.738 165.955 201.967 165.31 203.08 164.493C201.708 164.605 200.36 164.914 199.076 165.412ZM183.074 128.75C181.771 129.216 180.539 129.861 179.413 130.666C180.79 130.554 182.144 130.245 183.433 129.747C184.737 129.293 185.966 128.647 187.079 127.831C185.707 127.942 184.358 128.252 183.074 128.75ZM198.172 79.5292C196.875 79.999 195.649 80.6438 194.526 81.4457C197.293 81.1985 199.944 80.2198 202.208 78.61C200.826 78.7219 199.467 79.0315 198.172 79.5292Z" fill="black"/>
<path d="M190.273 86.6665C201.943 108.776 225.689 148.991 243.249 152.107C261.821 155.348 288.559 137.508 299.793 132.288C304.467 130.075 282.202 98.9132 276.686 99.9883C271.17 101.063 253.704 113.123 249.512 113.139C245.321 113.154 221.638 87.43 204.842 73.4538C185.069 56.9535 180.8 68.7171 190.273 86.6665Z" fill="#FFB09F"/>
<path d="M302.768 70.6173C303.955 71.0314 304.989 71.7945 305.734 72.8067C306.479 73.8188 306.901 75.0327 306.944 76.2888C309.016 75.7217 311.221 75.8981 313.176 76.7874C316.526 78.5169 315.295 84.5779 315.295 84.5779C317.553 84.4379 319.801 84.9808 321.746 86.1361C324.784 88.0993 324.41 94.3473 324.41 94.3473C326.556 95.3724 328.26 97.1372 329.209 99.3176C331.531 105.223 325.734 113.013 322.12 118.015C318.505 123.016 299.122 133.97 296.255 133.97L268.988 106.734C268.988 106.734 273.398 91.6361 283.634 80.8073C287.873 76.32 298.14 69.2618 302.768 70.6173Z" fill="#FFB09F"/>
<path d="M306.26 76.1633C300.558 79.7781 296.242 84.8887 291.645 89.7344C291.536 89.8435 291.645 89.9993 291.817 89.8902C296.335 85.0133 301.757 81.1025 306.463 76.4126C306.603 76.2879 306.416 76.0698 306.26 76.1633Z" fill="#263238"/>
<path d="M314.705 84.3588C313.493 85.3056 312.409 86.4054 311.479 87.6308C310.404 88.8773 309.376 90.1237 308.363 91.4014C306.286 93.9359 304.307 96.5328 302.427 99.1919C302.349 99.301 302.427 99.4724 302.598 99.3477C304.639 96.808 306.712 94.3151 308.831 91.8688C309.906 90.6379 310.996 89.4226 312.087 88.2229C313.189 87.1482 314.171 85.9571 315.016 84.6704C315.037 84.6268 315.044 84.5778 315.036 84.5301C315.028 84.4825 315.005 84.4386 314.971 84.4044C314.936 84.3702 314.893 84.3475 314.845 84.3393C314.797 84.3311 314.748 84.3379 314.705 84.3588Z" fill="#263238"/>
<path d="M324.287 94.4541C323.205 95.3322 322.278 96.3856 321.545 97.5703L318.802 101.092C316.964 103.429 315.125 105.766 313.193 108.041C313.1 108.15 313.271 108.321 313.364 108.197C315.328 105.906 317.322 103.631 319.27 101.31C320.22 100.172 321.171 99.0349 322.105 97.8819C323.068 96.9239 323.849 95.7995 324.411 94.5631C324.426 94.5466 324.433 94.525 324.432 94.5031C324.43 94.4812 324.42 94.4607 324.404 94.4463C324.387 94.4318 324.366 94.4245 324.344 94.426C324.322 94.4274 324.301 94.4375 324.287 94.4541Z" fill="#263238"/>
<path d="M268.289 102.481L289.744 142.992C289.744 142.992 254.546 160.458 237.049 152.076C219.551 143.693 195.151 102.076 187.595 83.4257C180.038 64.7751 188.592 58.6673 204.235 71.9268C219.879 85.1863 247.426 110.63 248.548 111.191C249.67 111.752 268.289 102.481 268.289 102.481Z" fill="#FFD02E"/>
<path opacity="0.1" d="M198.173 79.5306C196.876 80.0004 195.65 80.6452 194.527 81.4471C197.294 81.1998 199.945 80.2211 202.209 78.6113C200.827 78.7233 199.468 79.0329 198.173 79.5306ZM248.126 137.492C246.82 137.952 245.587 138.598 244.465 139.409C247.232 139.153 249.882 138.169 252.146 136.557C250.768 136.674 249.414 136.989 248.126 137.492ZM270.423 106.455C269.862 106.595 269.332 106.782 268.865 106.969C267.559 107.429 266.325 108.074 265.203 108.885C266.585 108.773 267.944 108.464 269.239 107.966C269.807 107.751 270.363 107.507 270.906 107.234L270.423 106.455ZM228.837 108.013C228.367 106.711 227.722 105.479 226.92 104.351C227.18 107.115 228.157 109.763 229.756 112.033C229.644 110.656 229.335 109.302 228.837 108.013ZM235.506 149.864C235.036 148.567 234.391 147.34 233.589 146.218C233.703 147.594 234.012 148.948 234.508 150.237L234.742 150.814C235.178 151.079 235.615 151.328 236.035 151.546C235.879 151.001 235.692 150.456 235.506 149.895V149.864ZM265.11 125.869C264.643 124.57 263.998 123.343 263.193 122.223C263.307 123.6 263.616 124.953 264.112 126.243C264.579 127.541 265.224 128.768 266.029 129.889C265.899 128.52 265.574 127.176 265.063 125.9L265.11 125.869ZM227.715 130.263C226.466 129.672 225.138 129.262 223.773 129.047C224.834 129.935 226.014 130.669 227.279 131.229C228.527 131.824 229.855 132.239 231.221 132.459C230.12 131.568 228.898 130.839 227.59 130.294L227.715 130.263ZM286.923 137.336C286.362 136.994 285.786 136.698 285.194 136.401C283.943 135.816 282.616 135.412 281.252 135.202C282.316 136.084 283.495 136.818 284.757 137.383C285.632 137.784 286.539 138.112 287.468 138.365L286.923 137.336ZM207.273 98.8823C206.033 98.2772 204.709 97.8623 203.346 97.6514C204.395 98.5517 205.571 99.292 206.836 99.8483C208.087 100.437 209.414 100.846 210.778 101.064C209.669 100.164 208.429 99.4387 207.101 98.9134L207.273 98.8823ZM212.757 120.867C212.166 122.117 211.757 123.444 211.542 124.809C212.437 123.757 213.177 122.581 213.739 121.319C214.325 120.068 214.734 118.741 214.954 117.377C213.996 118.428 213.198 119.614 212.586 120.898L212.757 120.867ZM248.188 119.403C247.586 120.649 247.171 121.977 246.958 123.345C248.73 121.211 249.907 118.647 250.37 115.912C249.411 116.959 248.617 118.147 248.017 119.434L248.188 119.403ZM262.835 146.56C262.25 147.813 261.836 149.139 261.604 150.502C262.51 149.458 263.251 148.281 263.801 147.012C264.398 145.765 264.807 144.437 265.016 143.07C264.075 144.131 263.284 145.316 262.663 146.591L262.835 146.56Z" fill="black"/>
<path d="M269.987 125.806C268.553 122.877 267.042 119.978 265.546 117.096C264.814 115.694 264.113 114.307 263.334 112.936C262.555 111.565 261.776 109.898 260.856 108.495C260.856 108.386 260.654 108.495 260.685 108.573C261.246 110.131 262.056 111.689 262.71 113.247C263.365 114.806 264.004 116.099 264.674 117.517C266.045 120.461 267.431 123.422 268.881 126.336C271.794 132.194 274.848 137.943 277.995 143.662C278 143.68 278.009 143.696 278.021 143.711C278.033 143.725 278.048 143.736 278.065 143.744C278.081 143.751 278.1 143.755 278.118 143.755C278.137 143.755 278.155 143.75 278.172 143.742C278.188 143.733 278.203 143.722 278.214 143.707C278.226 143.692 278.234 143.675 278.238 143.657C278.242 143.639 278.242 143.62 278.238 143.602C278.233 143.584 278.225 143.567 278.214 143.553C275.58 137.616 272.869 131.664 269.987 125.806Z" fill="#263238"/>
<path d="M208.924 122.035C206.883 118.654 199.248 105.082 197.877 102.558C195.119 97.4477 192.408 92.3059 189.65 87.2109H189.557C190.819 90.4674 192.221 93.6615 193.732 96.8089L193.312 96.2168C192.424 95.017 191.489 93.8485 190.554 92.6799C190.554 92.602 190.382 92.6799 190.429 92.7734C191.271 94.051 192.081 95.3287 192.969 96.5752C193.53 97.3542 194.137 98.1333 194.714 98.8656C195.4 100.237 196.101 101.577 196.817 102.932C198.204 105.519 205.745 119.105 208.721 122.113C208.83 122.284 209.002 122.175 208.924 122.035Z" fill="#263238"/>
<path d="M230.879 44.0213C237.111 42.9307 245.743 38.2252 250.386 38.9263C251.534 39.059 252.609 39.5581 253.451 40.3495C254.293 41.141 254.857 42.1827 255.061 43.3202C255.061 43.3202 258.535 39.4405 262.649 40.7805C264.768 41.4661 265.531 45.4548 265.531 45.4548C266.368 44.6252 267.416 44.0412 268.562 43.7664C269.707 43.4916 270.907 43.5367 272.028 43.8967C274.88 45.0185 275.145 48.8359 275.145 48.8359C275.145 48.8359 279.274 47.2778 281.813 49.3501C286.971 53.557 279.99 78.9541 269.567 80.2941C264.705 80.9173 266.747 74.8095 266.747 74.8095C266.747 74.8095 261.683 82.8805 256.416 81.5717C251.15 80.2629 254.282 72.4879 254.282 72.4879C254.282 72.4879 249.311 80.2785 243.983 78.362C238.654 76.4455 243.032 69.0601 243.032 69.0601C243.032 69.0601 237.657 73.6409 233.902 71.257C227.669 67.2995 239.168 58.948 239.371 53.0116L231.019 47.4024L230.879 44.0213Z" fill="#FFB09F"/>
<path d="M240.274 41.1363C234.291 41.6505 229.367 33.0965 223.633 32.7693C215.843 32.333 220.766 42.6632 230.988 47.4622L239.588 49.7993L240.274 41.1363Z" fill="#FFB09F"/>
<path d="M265.624 45.3284C265.624 45.2193 265.811 45.2505 265.811 45.3284C265.442 55.5343 261.435 65.2717 254.515 72.7822C254.266 73.0315 253.798 73.0159 254.063 72.7822C258.519 67.5002 264.082 53.6954 265.624 45.3284Z" fill="#263238"/>
<path d="M242.299 69.4943C248.999 62.0778 252.645 53.2745 255.091 43.6921C255.091 43.5675 255.294 43.6921 255.294 43.6921C255.294 48.7092 253.175 54.5989 251.071 59.133C249.206 63.3318 246.272 66.9686 242.564 69.6813C242.408 69.8371 242.159 69.6502 242.299 69.4943Z" fill="#263238"/>
<path d="M194.091 64.2578C187.609 58.3681 167.479 51.4813 157.803 54.9092C145.587 59.3186 125.815 97.5857 129.476 101.06C136.02 107.293 168.273 90.1535 176.438 81.9267C184.602 73.6999 194.091 64.2578 194.091 64.2578Z" fill="#FFD02E"/>
<path opacity="0.1" d="M164.315 54.0215C163.691 54.3308 163.097 54.6959 162.539 55.1122C163.911 55.0002 165.26 54.6906 166.543 54.1929H166.715C165.904 54.0526 165.125 54.0215 164.315 54.0215ZM149.622 63.3701C149.435 62.9027 149.248 62.4353 149.03 61.9834L148.313 62.8092C148.407 63.1208 148.516 63.4324 148.625 63.744C149.089 65.0437 149.734 66.2713 150.542 67.39C150.428 66.0182 150.119 64.6697 149.622 63.3857V63.3701ZM180.364 67.203C179.904 65.9019 179.258 64.6739 178.447 63.5571C178.559 64.9292 178.869 66.2779 179.366 67.5614C179.826 68.8675 180.472 70.1006 181.283 71.223C181.17 69.8511 180.86 68.5026 180.364 67.2186V67.203ZM139.432 84.6383C138.183 84.0474 136.855 83.6382 135.49 83.4229C136.543 84.3184 137.718 85.0583 138.98 85.6199C140.231 86.2064 141.558 86.6155 142.922 86.8352C141.87 85.9397 140.695 85.1999 139.432 84.6383ZM159.127 76.5205C158.529 77.7674 158.12 79.0958 157.911 80.4625C158.797 79.4004 159.531 78.2206 160.093 76.9568C160.691 75.7144 161.105 74.3918 161.324 73.0304C160.433 74.0635 159.693 75.2176 159.127 76.4582V76.5205Z" fill="black"/>
<path d="M185.725 75.0873C184.027 76.1624 182.297 77.2063 180.614 78.297C183.092 75.9286 185.585 73.6227 187.984 71.1297C187.984 71.0362 187.984 70.896 187.844 70.9739C184.781 73.3047 181.847 75.8014 179.056 78.4528C176.096 81.0392 173.135 83.6413 170.066 86.0875C167.033 88.5615 163.819 90.8062 160.452 92.8029C156.856 94.8223 153.117 96.5772 149.265 98.0538C147.084 98.8951 144.903 99.7053 142.706 100.469C140.343 101.28 137.92 101.905 135.46 102.339C134.993 102.339 135.242 102.603 135.46 102.588C137.53 102.366 139.574 101.954 141.568 101.357C143.64 100.765 145.728 100.173 147.801 99.5495C151.771 98.4176 155.638 96.953 159.362 95.1712C166.607 91.572 172.59 86.2589 178.308 80.6185L178.636 80.2914C179.648 79.6369 180.645 78.9514 181.612 78.2346C183.029 77.1907 184.463 76.2247 185.959 75.2898C185.99 75.2898 185.865 75.0094 185.725 75.0873Z" fill="#263238"/>
</svg>
